<svg width="187" height="185" xmlns="http://www.w3.org/2000/svg">
 <!-- Created with Method Draw - http://github.com/duopixel/Method-Draw/ -->

 <g>
  <title>background</title>
  <rect fill="none" id="canvas_background" height="187" width="189" y="-1" x="-1"/>
 </g>
 <g>
  <title>Layer 1</title>
  <!-- Created with Method Draw - http://github.com/duopixel/Method-Draw/ -->
  <path stroke="#000" id="svg_45" d="m1.852884,92.197306l0,0c0,-50.108624 41.124126,-90.729697 91.853295,-90.729697l0,0c24.360998,0 47.724253,9.558988 64.950075,26.574107c17.22584,17.015124 26.90322,40.092571 26.90322,64.15559l0,0c0,50.108617 -41.124125,90.729697 -91.853295,90.729697l0,0c-50.729163,0 -91.853295,-40.621081 -91.853295,-90.729697z" stroke-width="1.5" fill="#fff"/>
  <g stroke="null" id="svg_44">
   <g stroke="null" id="svg_42">
    <title stroke="null" transform="translate(-13.483051300048828,-14.60663890838623) translate(0,2.8767623901367188) translate(-1,0) translate(-1,0) translate(-1,0) translate(-1,0) translate(-1,0) translate(-1,0) translate(-1,0) translate(1,0) translate(1,0) translate(1,0) translate(-0.000003814697265625,0) translate(2.550853729248047,0) translate(0,-1.1235876083374023) translate(-3.370762825012207,1.1235876083374023) translate(1.1235876083374023,2.2471752166748047) translate(-3.370762825012207,-4.494350433349609) translate(-8.42690658569336,7.865113258361816) translate(-9.550494194030762,-1.1235876083374023) translate(6.741525650024414,-5.617938041687012) translate(-1.1235876083374023,10.112288475036621) translate(-58.98834991455078,-49.4378547668457) translate(254,201) scale(0.5395494103431702,0.5466713309288025) translate(-254,-201) translate(70.42913818359375,298.9504089355469) scale(1,1.0864864587783813) translate(-70.42913818359375,-298.9504089355469) translate(325.42913818359375,275.1533508300781) scale(1.0081665515899658,0.9438103437423706) translate(-325.42913818359375,-275.1533508300781) translate(67.79302978515625,291.5345764160156) scale(1.0081003904342651,0.9751937985420227) translate(-67.79302978515625,-291.5345764160156) ">background</title>
    <rect stroke="null" fill="#fff" id="svg_40" height="110.427604" width="139.83229" y="38.393365" x="23.393352"/>
   </g>
   <g stroke="null" id="svg_43">
    <title stroke="null" transform="translate(-13.483051300048828,-14.60663890838623) translate(0,2.8767623901367188) translate(-1,0) translate(-1,0) translate(-1,0) translate(-1,0) translate(-1,0) translate(-1,0) translate(-1,0) translate(1,0) translate(1,0) translate(1,0) translate(-0.000003814697265625,0) translate(2.550853729248047,0) translate(0,-1.1235876083374023) translate(-3.370762825012207,1.1235876083374023) translate(1.1235876083374023,2.2471752166748047) translate(-3.370762825012207,-4.494350433349609) translate(-8.42690658569336,7.865113258361816) translate(-9.550494194030762,-1.1235876083374023) translate(6.741525650024414,-5.617938041687012) translate(-1.1235876083374023,10.112288475036621) translate(-58.98834991455078,-49.4378547668457) translate(254,201) scale(0.5395494103431702,0.5466713309288025) translate(-254,-201) translate(70.42913818359375,298.9504089355469) scale(1,1.0864864587783813) translate(-70.42913818359375,-298.9504089355469) translate(325.42913818359375,275.1533508300781) scale(1.0081665515899658,0.9438103437423706) translate(-325.42913818359375,-275.1533508300781) translate(67.79302978515625,291.5345764160156) scale(1.0081003904342651,0.9751937985420227) translate(-67.79302978515625,-291.5345764160156) ">Layer 1</title>
    <metadata stroke="null" transform="translate(-13.483051300048828,-14.60663890838623) translate(0,2.8767623901367188) translate(-1,0) translate(-1,0) translate(-1,0) translate(-1,0) translate(-1,0) translate(-1,0) translate(-1,0) translate(1,0) translate(1,0) translate(1,0) translate(-0.000003814697265625,0) translate(2.550853729248047,0) translate(0,-1.1235876083374023) translate(-3.370762825012207,1.1235876083374023) translate(1.1235876083374023,2.2471752166748047) translate(-3.370762825012207,-4.494350433349609) translate(-8.42690658569336,7.865113258361816) translate(-9.550494194030762,-1.1235876083374023) translate(6.741525650024414,-5.617938041687012) translate(-1.1235876083374023,10.112288475036621) translate(-58.98834991455078,-49.4378547668457) translate(254,201) scale(0.5395494103431702,0.5466713309288025) translate(-254,-201) translate(70.42913818359375,298.9504089355469) scale(1,1.0864864587783813) translate(-70.42913818359375,-298.9504089355469) translate(325.42913818359375,275.1533508300781) scale(1.0081665515899658,0.9438103437423706) translate(-325.42913818359375,-275.1533508300781) translate(67.79302978515625,291.5345764160156) scale(1.0081003904342651,0.9751937985420227) translate(-67.79302978515625,-291.5345764160156) ">Created by potrace 1.16, written by Peter Selinger 2001-2019</metadata>
    <g stroke="null" id="svg_26">
     <g stroke="null" id="svg_27" fill="#000000" transform="matrix(0.04765469149310106,0,0,-0.03750020939909277,-579.287117259689,-161.18316206380626) ">
      <path stroke="null" id="svg_39" d="m14916.023173,-5425.688131c42,-9 26,-16 -105,-46c-199,-46 -369,-118 -530,-226c-114,-76 -227,-194 -235,-246c-20,-112 -52,-167 -135,-228c-62,-45 -84,-43 -127,13c-27,35 -33,53 -33,91c0,42 5,52 43,90c52,53 169,138 307,223c236,145 438,238 635,292c126,35 125,34 96,35c-13,1 -51,-6 -85,-14c-234,-60 -487,-178 -738,-344c-91,-61 -177,-115 -190,-120c-13,-5 -55,-12 -93,-16c-39,-4 -83,-14 -100,-23c-29,-15 -29,-15 -80,40c-28,30 -84,98 -123,150c-41,55 -81,98 -94,101c-22,6 -22,7 9,39c17,18 36,43 42,56c10,19 9,22 -8,22c-16,0 -115,-32 -278,-90c-18,-7 -33,-18 -33,-26c0,-8 -15,-30 -34,-49c-40,-40 -98,-134 -116,-190c-8,-23 -41,-69 -82,-112c-81,-86 -102,-129 -93,-189c8,-56 31,-76 44,-40c7,16 21,28 38,32c15,3 67,26 115,50c48,24 94,44 104,44c19,0 178,-152 235,-226c44,-57 46,-67 22,-133c-16,-46 -16,-49 6,-94c33,-67 159,-157 221,-157c34,0 175,-44 207,-65l26,-17l-8,-102c-13,-177 -17,-161 35,-163c49,-3 80,13 84,44c2,12 16,21 47,28c61,14 69,21 69,61c0,37 -22,56 -43,35c-20,-20 -54,-13 -61,13c-10,41 3,59 38,52c17,-3 94,-15 170,-26c76,-12 149,-25 161,-30c25,-9 28,-24 60,-245c10,-67 26,-130 41,-162c13,-28 24,-57 24,-62c0,-17 12,-13 41,15l27,26l21,-40c11,-22 25,-43 30,-46c17,-11 38,5 57,40c21,39 43,43 69,14c26,-29 33,-25 54,24c14,31 28,46 49,54c32,11 38,26 44,112l3,35l23,-43c12,-23 27,-40 33,-37c5,4 19,25 30,47c31,61 22,109 -36,199c-117,182 -194,276 -354,427c-88,85 -161,160 -161,167c0,7 20,21 44,32c44,19 70,35 356,217c164,105 255,146 455,206c152,45 195,69 195,104c0,45 -17,49 -283,60l-252,11l45,32c53,37 143,128 195,198c21,28 47,54 59,59c21,8 21,8 1,16c-11,5 -67,8 -125,8c-58,0 -92,-3 -75,-7zm-1619,-195c-56,-48 -57,-55 -32,-174c17,-76 15,-92 -9,-92c-14,0 -34,56 -50,138c-5,24 -17,38 -51,58c-24,14 -44,29 -44,33c0,4 44,22 98,41c53,18 104,36 112,41c34,18 21,-5 -24,-45zm60,-88c11,-13 26,-36 34,-51c8,-16 45,-65 82,-110c37,-45 68,-85 68,-89c0,-8 -26,-12 -156,-27c-66,-7 -117,-20 -178,-45c-47,-20 -99,-36 -116,-36c-26,0 -30,4 -35,38c-9,54 -16,64 -73,95c-29,16 -52,34 -52,40c0,22 89,166 109,177c27,14 67,13 99,-4c23,-12 31,-27 45,-89c21,-86 37,-113 72,-120c22,-4 29,1 42,29c15,30 15,40 0,116c-10,46 -17,86 -17,91c0,17 58,6 76,-15zm1918,-84c9,-3 16,-10 16,-15c0,-4 -62,-28 -139,-53c-236,-75 -288,-102 -593,-302c-194,-127 -283,-168 -316,-147c-33,21 -18,37 44,48c87,16 147,65 250,201c46,62 118,148 160,193l76,81l243,0c134,0 250,-3 259,-6zm-1514,-164c0,-6 -9,-28 -20,-50c-25,-50 -25,-71 1,-123c28,-54 142,-168 197,-196c23,-12 42,-28 42,-35c0,-22 -148,-166 -188,-183c-68,-28 -154,7 -197,81c-20,33 -25,57 -25,106c0,55 6,75 46,156c37,73 48,108 53,161c4,37 10,74 14,81c10,15 77,16 77,2zm669,-591c94,-88 171,-165 171,-170c0,-20 -226,27 -344,72c-96,35 -135,84 -122,153c7,39 74,106 105,106c11,0 92,-68 190,-161zm228,-221c41,-46 154,-218 179,-272c25,-54 25,-55 7,-90l-18,-36l-79,92c-81,94 -109,147 -128,231c-10,48 -5,97 10,97c5,0 18,-10 29,-22z"/>
      <path stroke="null" id="svg_38" d="m13723.023173,-6317.688131c-49,-36 -95,-108 -90,-141c2,-17 10,-24 33,-26c39,-4 88,29 133,87c69,91 16,148 -76,80z"/>
      <path stroke="null" id="svg_37" d="m14211.023173,-6459.688131c-20,-10 -26,-21 -28,-54c-3,-34 1,-44 24,-62c34,-27 88,-27 114,-1c27,27 25,54 -7,89c-33,35 -69,45 -103,28z"/>
      <path stroke="null" id="svg_36" d="m12886.023173,-7449.688131c-3,-6 -4,-163 -3,-347l3,-335l48,-3l47,-3l0,150c0,124 3,151 14,151c17,0 19,-5 46,-130c40,-182 34,-170 90,-170c28,0 50,2 50,4c0,3 -18,73 -41,156l-40,151l25,30c35,41 41,68 40,169c0,149 -41,190 -187,190c-61,0 -89,-4 -92,-13z"/>
      <path stroke="null" id="svg_35" d="m13531.023173,-7786.688131l0,-350l45,0c38,0 45,3 45,20c0,24 15,27 24,5c9,-24 52,-36 80,-23c45,20 56,71 56,254c0,175 -9,222 -48,243c-32,17 -51,13 -78,-14c-14,-14 -27,-25 -29,-25c-3,0 -5,54 -5,120l0,120l-45,0l-45,0l0,-350zm148,-98c2,-125 1,-143 -14,-149c-33,-12 -44,24 -44,145c0,118 10,155 38,150c15,-3 17,-22 20,-146z"/>
      <path stroke="null" id="svg_34" d="m14141.023173,-7787.688131l0,-350l48,3l47,3l3,143l3,142l34,0l34,0l3,-142l3,-143l45,0l45,0l3,348l2,347l-50,0l-50,0l0,-150l0,-150l-35,0l-35,0l0,150l0,150l-50,0l-50,0l0,-351z"/>
      <path stroke="null" id="svg_33" d="m15241.023173,-7786.688131l0,-350l45,0l45,0l0,55c0,50 24,125 40,125c4,0 19,-41 34,-90l27,-90l50,0c59,0 60,-20 -11,175l-48,129l38,76c20,41 41,85 45,98c6,22 5,23 -40,20l-47,-3l-37,-88c-21,-48 -40,-84 -44,-80c-4,3 -7,89 -7,190l0,183l-45,0l-45,0l0,-350z"/>
      <path stroke="null" id="svg_32" d="m13285.023173,-7642.688131c-54,-26 -59,-48 -59,-245c0,-203 7,-223 82,-247c53,-17 104,2 133,50c18,30 20,50 20,196c0,190 -9,224 -64,247c-45,19 -73,19 -112,-1zm80,-110c3,-9 6,-68 6,-133c0,-89 -4,-122 -15,-137c-15,-19 -15,-19 -30,0c-18,24 -22,235 -5,267c13,23 36,25 44,3z"/>
      <path stroke="null" id="svg_31" d="m13904.023173,-7640.688131c-56,-25 -63,-54 -63,-246c0,-187 6,-214 55,-240c38,-20 101,-17 133,7c15,11 32,35 39,54c15,42 17,300 3,350c-20,72 -97,106 -167,75z"/>
      <path stroke="null" id="svg_30" d="m14544.023173,-7646.688131c-36,-22 -48,-40 -57,-92l-7,-38l44,0c35,0 48,5 59,22c24,36 48,17 48,-37c0,-44 -1,-45 -30,-45c-75,0 -123,-61 -124,-160c-1,-103 51,-166 115,-140c16,7 29,18 29,24c0,6 5,3 11,-6c7,-12 22,-18 49,-18l40,0l0,210c0,237 -5,261 -65,286c-46,19 -74,18 -112,-6z"/>
      <path stroke="null" id="svg_29" d="m12731.023173,-7886.688131l0,-250l45,0l45,0l0,250l0,250l-45,0l-45,0l0,-250z"/>
      <path stroke="null" id="svg_28" d="m14771.023173,-7643.688131c0,-5 9,-57 20,-118c11,-60 30,-168 43,-240l22,-130l37,-3c42,-4 36,-21 64,178c9,63 17,116 19,118c4,5 12,-36 31,-168c9,-63 18,-118 21,-122c4,-8 73,-11 73,-3c0,2 18,108 40,234c22,126 40,236 40,245c0,12 -10,16 -44,16l-43,0l-13,-140c-7,-77 -16,-138 -19,-135c-3,4 -15,66 -26,138l-20,132l-37,3c-44,4 -41,11 -64,-165c-10,-73 -19,-131 -21,-129c-3,3 -31,254 -33,289c0,4 -20,7 -45,7c-25,0 -45,-3 -45,-7z"/>
     </g>
    </g>
    <path stroke="#000" id="svg_25" d="m40.067191,58.313549l0,0c0,-0.657148 0.73577,-1.189868 1.64338,-1.189868l0,0c0.435855,0 0.853854,0.125363 1.162045,0.348503c0.308196,0.223146 0.481336,0.525794 0.481336,0.841365l0,0c0,0.657143 -0.735765,1.189863 -1.64338,1.189863l0,0c-0.90761,0 -1.64338,-0.53272 -1.64338,-1.189863zm1.64338,-1.189868l0,2.379731m-1.64338,-1.189863l3.286761,0" stroke-width="0" fill="#000000"/>
    <path stroke="#000" id="svg_24" d="m27.254747,121.681177l0,0c0,1.365087 1.041712,2.471709 2.326711,2.471709l0,0c0.617088,0 1.208897,-0.260412 1.645245,-0.723946c0.436337,-0.463544 0.681466,-1.092222 0.681466,-1.747763l0,0c0,-1.365098 -1.041701,-2.471725 -2.326705,-2.471725l0,0c-1.285004,0 -2.326711,1.106627 -2.326711,2.471725l-0.000005,0zm2.326711,2.471709l0,-4.943434m-2.326711,2.471725l4.653421,0" stroke-width="0" fill="#000000"/>
    <path stroke="#000" id="svg_23" d="m72.354543,79.005703l0,0c0,-1.080397 0.850493,-1.956236 1.899624,-1.956236l0,0c0.503818,0 0.986997,0.206106 1.343245,0.572972c0.356249,0.366866 0.556384,0.86444 0.556384,1.383264l0,0c0,1.080408 -0.850487,1.956247 -1.89963,1.956247l0,0c-1.049132,0 -1.899624,-0.875839 -1.899624,-1.956247zm1.899624,-1.956236l0,3.912483m-1.899624,-1.956247l3.799254,0" fill="#ffffff"/>
    <path stroke="#000" id="svg_22" d="m97.637762,83.603963l0,0c0,-0.892282 0.697522,-1.615627 1.557957,-1.615627l0,0c0.413202,0 0.809475,0.170223 1.101654,0.47321c0.292173,0.302993 0.456308,0.713925 0.456308,1.142417l0,0c0,0.892293 -0.697516,1.615632 -1.557962,1.615632l0,0c-0.860435,0 -1.557957,-0.723339 -1.557957,-1.615632zm1.557957,-1.615627l0,3.231259m-1.557957,-1.615632l3.115919,0" fill="#ffffff"/>
   </g>
  </g>
 </g>
</svg>