<?xml version="1.0" standalone="no"?>
<!DOCTYPE svg PUBLIC "-//W3C//DTD SVG 20010904//EN"
 "http://www.w3.org/TR/2001/REC-SVG-20010904/DTD/svg10.dtd">
<svg version="1.0" xmlns="http://www.w3.org/2000/svg"
 width="778.000000pt" height="531.000000pt" viewBox="0 0 778.000000 531.000000"
 preserveAspectRatio="xMidYMid meet">
<g transform="translate(0.000000,531.000000) scale(0.100000,-0.100000)"
fill="#ffffff" stroke="none">
<path d="M6085 5119 c-49 -4 -129 -7 -178 -8 -82 -1 -196 -21 -402 -70 -44
-11 -127 -29 -185 -41 -158 -33 -213 -48 -350 -95 -69 -24 -143 -47 -165 -51
-22 -4 -74 -22 -117 -40 -42 -19 -82 -34 -90 -34 -7 0 -40 -13 -73 -28 -33
-16 -78 -32 -100 -36 -22 -4 -78 -27 -125 -51 -47 -23 -130 -62 -185 -85 -55
-23 -127 -58 -161 -76 -33 -19 -69 -34 -78 -34 -16 0 -66 -27 -176 -95 -19
-12 -66 -36 -105 -54 -38 -18 -88 -46 -111 -62 -24 -16 -47 -29 -53 -29 -5 0
-45 -18 -88 -39 -162 -82 -206 -92 -428 -102 -189 -9 -202 -11 -235 -34 -46
-32 -84 -32 -126 0 -18 14 -37 25 -43 25 -6 0 -34 23 -63 51 -29 29 -67 62
-83 75 -70 53 -364 354 -394 403 -3 5 -35 15 -71 22 -36 7 -69 16 -74 21 -12
10 15 32 69 58 70 33 106 70 108 112 2 30 6 38 22 39 11 0 36 7 55 15 34 13
34 14 -35 10 -93 -4 -225 -31 -360 -72 -61 -19 -117 -34 -126 -34 -8 0 -57
-13 -109 -29 -52 -16 -117 -33 -145 -37 -27 -4 -79 -17 -115 -30 -54 -19 -61
-24 -42 -30 14 -4 22 -14 22 -29 0 -26 -14 -40 -53 -49 -15 -4 -51 -29 -79
-56 -29 -28 -54 -50 -57 -51 -3 0 -28 -29 -56 -65 -27 -36 -57 -73 -65 -82
-43 -49 -110 -171 -110 -201 0 -25 -92 -113 -183 -174 -40 -27 -88 -64 -107
-83 -20 -19 -41 -34 -47 -34 -6 0 -17 -10 -26 -22 -8 -13 -23 -32 -34 -43 -64
-69 -85 -158 -58 -251 16 -54 61 -114 86 -114 11 0 29 35 29 57 1 39 27 57 99
64 87 10 262 68 338 114 31 19 82 42 113 51 30 9 65 20 78 25 13 5 35 9 51 9
32 0 116 -39 157 -73 16 -13 67 -51 114 -85 47 -33 98 -74 114 -91 17 -17 35
-31 40 -31 6 0 43 -31 83 -68 40 -37 104 -96 143 -132 101 -92 122 -142 81
-187 -51 -54 -76 -139 -59 -200 14 -51 116 -183 141 -183 5 0 46 -25 91 -55
45 -30 87 -55 94 -55 7 0 20 -4 30 -9 100 -51 190 -75 311 -86 35 -3 109 -16
163 -30 54 -14 113 -25 131 -25 39 0 200 -53 245 -80 60 -37 64 -83 26 -281
-45 -232 -49 -266 -35 -283 21 -25 123 -30 209 -11 93 21 120 33 140 63 12 18
12 28 4 47 -14 30 -8 32 123 38 108 6 158 25 181 69 19 37 14 96 -11 134 -23
35 -42 40 -68 16 -57 -52 -128 -66 -168 -33 -18 14 -23 30 -26 77 -6 96 5 101
169 65 51 -11 147 -27 213 -36 66 -9 136 -18 155 -21 19 -3 105 -9 190 -14
161 -9 280 -31 300 -55 7 -8 16 -31 22 -52 11 -46 54 -263 62 -318 21 -143 63
-317 92 -383 13 -29 37 -66 53 -83 17 -16 36 -49 42 -72 6 -23 13 -48 15 -54
2 -7 14 -13 28 -13 17 0 40 18 79 62 36 41 59 59 69 55 9 -3 26 -27 38 -54 13
-26 38 -67 57 -91 31 -38 39 -42 77 -42 37 0 48 5 82 42 21 23 48 60 59 82 28
55 45 63 88 42 20 -9 39 -21 43 -27 12 -20 87 -69 106 -69 22 0 74 77 89 132
12 45 37 63 102 73 32 4 58 16 78 33 32 30 39 66 42 206 1 42 3 76 5 76 9 0
52 -57 87 -114 44 -72 74 -85 96 -43 7 12 25 35 40 51 16 16 32 39 35 50 4 12
16 34 26 49 38 53 4 163 -78 258 -27 31 -69 82 -94 113 -65 83 -166 197 -268
302 -23 25 -49 56 -58 69 -9 14 -23 25 -30 25 -8 0 -14 4 -14 9 0 19 -203 205
-265 241 -70 42 -128 81 -163 111 -18 16 -39 29 -46 29 -7 0 -34 18 -59 40
-25 22 -49 40 -54 40 -5 0 -20 11 -33 25 -13 14 -28 25 -33 25 -5 0 -40 24
-76 53 -36 29 -93 72 -126 97 -33 25 -77 62 -98 82 l-37 38 32 20 c18 11 64
29 103 40 123 36 243 90 330 147 27 18 58 33 68 33 11 0 31 8 45 19 44 31 110
61 133 61 12 0 42 11 68 24 25 13 62 30 81 37 19 7 66 32 103 56 37 24 72 43
77 43 5 0 28 10 52 23 97 53 155 85 188 106 19 11 43 21 53 21 10 0 52 18 93
40 41 22 81 40 88 40 7 0 35 8 62 19 75 28 154 54 193 62 20 3 94 25 166 48
71 22 146 41 167 41 21 0 98 16 171 35 72 19 143 35 157 35 14 0 71 14 125 30
55 17 124 38 153 46 110 33 151 148 67 191 -26 13 -71 21 -170 28 -44 3 -109
8 -145 11 -36 2 -293 5 -572 5 -280 1 -508 3 -508 4 0 3 117 71 160 92 14 7
39 22 55 33 17 11 39 24 50 29 11 5 31 21 45 36 13 14 40 36 60 48 75 45 297
252 355 330 14 19 32 29 60 33 58 8 72 13 78 28 5 11 -18 15 -106 21 -165 9
-399 11 -502 4z m115 -17 c0 -22 -225 -82 -307 -82 -36 0 -172 -21 -358 -56
-44 -8 -143 -35 -220 -60 -77 -24 -156 -47 -175 -51 -19 -3 -71 -21 -115 -40
-44 -18 -85 -33 -92 -33 -8 0 -39 -13 -71 -29 -31 -15 -74 -31 -95 -35 -20 -4
-95 -34 -165 -68 -70 -33 -152 -72 -182 -87 -30 -14 -76 -40 -102 -58 -26 -18
-55 -33 -63 -33 -9 0 -39 -17 -68 -38 -55 -41 -78 -56 -142 -98 -22 -15 -62
-47 -90 -71 -149 -131 -180 -173 -188 -261 -11 -133 -70 -233 -192 -329 -44
-34 -102 -74 -130 -89 -27 -15 -63 -36 -79 -47 -23 -16 -46 -21 -96 -21 -61
-1 -72 2 -123 36 -58 39 -123 123 -145 188 -15 41 -15 90 -1 127 9 25 94 113
109 113 4 0 35 22 71 50 35 27 70 50 77 50 7 0 34 15 60 32 26 18 61 40 77 49
17 9 52 28 78 43 26 14 52 26 57 26 5 0 36 17 69 39 34 21 72 42 86 45 14 4
25 11 25 16 0 6 7 10 15 10 9 0 33 11 55 25 22 14 45 25 51 25 7 0 43 18 81
40 39 22 78 40 87 40 10 0 49 17 87 38 38 20 85 43 104 50 19 8 58 23 85 34
28 11 61 23 75 27 14 5 61 26 106 49 44 22 97 44 118 47 21 4 64 20 97 36 33
16 66 29 73 29 8 0 45 14 83 31 37 17 95 37 128 44 33 8 114 32 180 54 143 48
165 54 490 125 133 29 330 65 370 68 106 8 205 8 205 0z m-226 -177 l46 -35
152 0 c136 0 150 -2 132 -15 -14 -10 -48 -14 -129 -15 -117 0 -125 -10 -27
-30 57 -12 65 -24 27 -42 -19 -9 -54 -4 -182 25 -87 20 -187 39 -223 42 -36 3
-89 11 -118 17 -50 11 -51 12 -36 30 22 24 30 23 182 -12 72 -16 134 -30 138
-30 5 0 -8 14 -29 31 -43 35 -46 46 -14 59 32 13 31 13 81 -25z m-119 -118
c214 -72 235 -81 218 -91 -9 -5 -73 -6 -147 -2 l-131 6 70 -26 c39 -14 78 -28
88 -31 35 -11 8 -43 -37 -43 -33 0 -401 48 -425 56 -24 8 20 33 59 34 19 0 75
-7 123 -16 146 -25 135 -13 -27 31 -54 15 -58 18 -43 33 15 14 28 15 139 3 68
-8 130 -15 138 -18 8 -2 -3 5 -25 16 -22 11 -50 20 -62 20 -13 1 -41 9 -64 18
l-42 16 23 19 c13 11 30 16 39 12 9 -3 57 -20 106 -37z m-3927 -4 c2 -7 -5
-16 -15 -20 -10 -3 -34 -18 -53 -33 -19 -15 -46 -31 -60 -35 -37 -12 -111 -71
-133 -107 -21 -35 -24 -16 47 -279 l34 -126 -23 -29 c-20 -25 -25 -27 -55 -18
-32 9 -34 12 -90 184 -55 167 -59 176 -91 191 -41 20 -109 50 -166 74 -24 10
-43 21 -43 25 0 15 178 71 267 85 95 14 239 54 308 86 44 20 66 20 73 2z
m3767 -197 c39 -9 92 -19 120 -22 l50 -6 -24 -19 c-14 -12 -31 -17 -42 -14
-15 5 -19 1 -19 -19 0 -39 -43 -56 -142 -56 -65 0 -90 4 -115 20 -40 24 -41
36 -6 72 l27 28 -57 0 c-44 0 -57 -3 -57 -15 0 -8 5 -15 11 -15 7 0 0 -9 -14
-20 -24 -19 -28 -20 -56 -6 -16 9 -33 21 -36 27 -10 15 23 48 59 59 42 13 215
5 301 -14z m-3774 -43 c34 -13 51 -31 94 -97 57 -87 172 -210 273 -291 34 -27
69 -59 77 -72 9 -13 22 -23 30 -23 13 0 65 -58 65 -73 0 -10 -52 -16 -185 -22
-383 -17 -568 -47 -737 -121 -42 -19 -87 -34 -100 -34 -12 0 -52 -9 -86 -20
-133 -42 -195 -19 -207 75 -3 28 -9 60 -12 72 -9 38 -138 123 -185 123 -12 0
-53 12 -89 26 l-67 26 30 42 c16 22 45 66 65 96 49 75 142 194 157 200 6 3 29
17 51 32 23 15 65 33 95 39 52 10 60 9 153 -28 l99 -38 59 -182 59 -182 48
-14 c54 -18 136 -27 149 -18 15 9 84 137 77 143 -3 3 -13 39 -23 79 -11 41
-27 101 -36 134 -35 123 -35 125 -12 135 36 14 114 11 158 -7z m3359 -53 c76
-22 155 -40 176 -40 20 0 72 -10 115 -22 76 -20 78 -22 63 -40 -23 -25 -73
-23 -175 7 -103 30 -104 30 -142 3 -17 -13 -40 -27 -51 -33 -26 -14 -21 -29
11 -36 16 -4 65 -15 110 -25 l82 -19 -21 -22 c-27 -29 -33 -29 -132 1 -45 14
-117 32 -161 42 -44 9 -117 27 -161 40 -45 13 -92 24 -104 24 -19 0 -21 2 -10
16 29 35 48 36 134 10 113 -35 133 -34 191 12 44 34 46 37 24 40 -13 1 -59 12
-102 24 -74 20 -77 22 -61 39 25 27 59 24 214 -21z m1683 -150 c140 -12 180
-21 156 -36 -45 -28 -243 -83 -379 -104 -41 -7 -120 -25 -174 -41 -54 -16
-107 -29 -116 -29 -10 0 -61 -16 -114 -35 -53 -19 -109 -35 -123 -35 -14 0
-67 -18 -117 -40 -50 -21 -109 -46 -131 -54 -22 -7 -65 -24 -95 -36 -30 -12
-68 -27 -85 -34 -16 -6 -60 -28 -97 -49 -36 -20 -74 -37 -83 -37 -9 0 -29 -9
-44 -20 -15 -10 -57 -34 -92 -53 -35 -18 -74 -39 -86 -45 -49 -26 -63 -32 -72
-32 -5 0 -40 -18 -78 -39 -37 -22 -90 -47 -117 -56 -27 -10 -67 -28 -88 -41
-20 -13 -40 -24 -43 -24 -4 0 -33 -18 -65 -40 -32 -22 -65 -40 -72 -40 -7 0
-49 -18 -93 -39 -44 -22 -105 -50 -135 -62 -71 -29 -244 -57 -292 -48 -45 8
-88 34 -88 54 0 23 32 34 137 45 147 15 272 48 308 81 31 28 89 64 161 100 23
11 62 41 87 67 25 26 53 54 63 63 11 9 33 33 49 54 79 100 339 345 479 451 43
32 111 84 151 114 l72 55 544 -2 c299 -1 601 -7 672 -13z m-1789 -78 c33 -12
77 -33 98 -47 32 -21 36 -28 29 -47 -4 -13 -27 -34 -51 -47 -64 -36 -170 -40
-280 -11 -106 28 -138 44 -152 75 -14 31 8 59 67 87 55 26 204 21 289 -10z
m-269 -171 c33 -12 74 -25 90 -28 70 -13 87 -68 31 -102 -18 -12 -43 -21 -55
-21 -12 0 -20 -4 -16 -9 3 -5 -6 -18 -20 -29 -19 -15 -32 -18 -62 -12 -36 6
-57 13 -208 61 -33 10 -66 19 -74 19 -14 0 -242 79 -251 87 -3 3 6 13 18 24
22 17 26 18 60 3 21 -9 64 -19 97 -23 53 -7 62 -6 74 12 25 36 70 48 166 44
61 -3 109 -11 150 -26z m-1873 -67 c21 -13 3 -54 -60 -131 -10 -12 -27 -41
-37 -63 -16 -36 -17 -47 -7 -87 7 -25 30 -70 51 -100 43 -59 212 -223 231
-223 7 0 32 -18 57 -40 25 -22 50 -40 55 -40 5 0 24 -11 42 -25 18 -14 39 -25
47 -25 8 0 23 -7 33 -15 11 -8 28 -15 38 -15 20 0 99 -38 133 -63 19 -14 18
-16 -14 -52 -18 -20 -53 -55 -79 -76 -26 -22 -67 -56 -92 -77 -75 -63 -180
-131 -293 -189 -45 -23 -57 -24 -165 -21 -112 3 -120 5 -197 42 -115 56 -184
119 -224 204 -38 85 -50 179 -31 249 18 63 56 139 72 145 7 3 31 32 53 64 22
33 47 67 55 76 23 25 79 162 90 216 4 26 10 76 11 112 5 128 32 154 153 145
38 -3 73 -8 78 -11z m1628 -117 c118 -38 150 -92 85 -144 -94 -76 -361 -51
-458 42 -17 16 -26 33 -23 42 3 8 6 18 6 23 0 16 76 53 125 60 74 11 191 1
265 -23z m-535 -112 c80 -21 135 -58 135 -90 0 -22 5 -25 33 -25 17 0 87 -5
155 -12 l123 -11 -30 -31 -30 -30 -128 12 c-167 16 -168 16 -198 -11 l-26 -22
48 -13 c26 -8 72 -23 102 -35 l54 -21 -38 -32 -38 -31 -63 28 c-35 16 -70 29
-79 29 -8 0 -38 11 -67 24 -29 13 -73 30 -98 36 -60 16 -240 93 -240 102 0 4
16 14 35 23 19 9 39 23 46 31 6 8 16 14 21 14 6 0 24 10 41 22 37 26 121 57
157 58 14 0 53 -7 85 -15z m-245 -270 c27 -14 56 -25 64 -25 9 0 55 -18 102
-40 48 -22 99 -40 113 -40 14 0 33 -5 41 -10 12 -9 9 -15 -20 -40 -19 -16 -40
-30 -47 -30 -6 0 -49 18 -94 40 -46 22 -93 40 -105 40 -13 0 -66 20 -119 44
l-96 43 27 22 c35 28 74 27 134 -4z m478 -412 c26 -14 56 -34 67 -44 11 -9 36
-25 55 -36 19 -10 63 -40 97 -67 35 -27 71 -54 82 -60 31 -18 125 -92 140
-109 7 -10 20 -17 29 -17 8 0 34 -17 57 -37 50 -44 83 -69 140 -103 107 -64
255 -180 255 -200 0 -25 -223 -1 -505 55 -66 13 -154 29 -195 35 -103 17 -206
45 -331 92 -81 30 -116 49 -150 81 -76 73 -83 86 -84 152 0 103 53 164 229
261 53 29 59 29 114 -3z m1110 -813 c47 -50 93 -101 102 -114 8 -13 29 -37 45
-53 17 -16 43 -45 58 -64 48 -57 111 -131 132 -153 51 -53 105 -136 125 -193
l22 -62 -47 -77 -48 -77 -23 39 c-13 22 -25 41 -26 44 -6 12 -97 80 -107 80
-6 0 -21 14 -33 30 -12 17 -46 49 -76 71 -170 128 -291 345 -292 521 0 67 16
98 52 98 24 0 46 -17 116 -90z"/>
<path d="M1092 4318 c-25 -13 -37 -46 -28 -82 7 -28 48 -41 96 -31 57 12 70
84 20 110 -34 17 -56 18 -88 3z"/>
<path d="M4951 4247 c-40 -20 -34 -31 27 -56 99 -40 212 -39 212 3 0 17 -14
23 -110 47 -88 22 -97 23 -129 6z"/>
<path d="M4662 4059 c4 -31 113 -70 197 -70 95 -1 109 31 32 71 -32 16 -59 20
-136 20 -93 0 -96 -1 -93 -21z"/>
<path d="M3070 3345 c-19 -7 -53 -20 -75 -28 -114 -43 -241 -152 -291 -249
-30 -59 -30 -89 -1 -116 50 -47 184 -20 307 61 197 130 275 295 159 336 -40
14 -56 13 -99 -4z"/>
<path d="M4400 3892 c-46 -38 -11 -60 143 -92 38 -8 56 -6 84 5 19 8 33 20 31
27 -7 24 -119 72 -177 76 -46 3 -61 0 -81 -16z"/>
<path d="M3941 3721 l-44 -30 29 -6 c16 -4 52 -16 81 -28 l52 -20 41 28 c54
37 57 45 30 67 -16 13 -39 18 -84 18 -51 0 -68 -5 -105 -29z"/>
<path d="M4225 3002 c-60 -28 -95 -68 -95 -108 0 -48 16 -82 52 -112 55 -47
68 -54 131 -69 106 -25 206 7 243 78 62 122 -186 280 -331 211z"/>
<path d="M954 1006 c-37 -16 -58 -64 -44 -100 32 -86 180 -69 180 20 0 48 -14
70 -51 83 -40 14 -47 13 -85 -3z"/>
<path d="M2540 625 l0 -395 86 0 86 0 -6 25 c-8 32 -3 31 41 -2 33 -25 45 -28
114 -28 70 0 81 3 120 30 24 17 55 53 73 85 30 53 31 60 31 170 0 124 -13 167
-67 217 -73 68 -239 58 -292 -19 -9 -12 -16 -18 -17 -13 0 6 -1 80 -2 165 l-2
155 -82 3 -83 3 0 -396z m329 10 c37 -18 56 -66 55 -136 -1 -79 -29 -130 -80
-148 -35 -12 -44 -12 -75 3 -43 20 -69 69 -69 129 0 128 79 199 169 152z"/>
<path d="M6096 1013 c-3 -4 -6 -181 -6 -395 l1 -388 84 0 85 0 0 125 c0 69 3
125 8 125 4 -1 42 -57 85 -125 l79 -125 100 0 100 0 -24 33 c-69 92 -178 245
-178 250 0 2 40 58 90 122 49 65 88 121 85 124 -2 4 -19 6 -37 6 -18 -1 -59
-3 -91 -3 l-58 -2 -77 -117 -77 -118 -3 248 -2 247 -79 0 c-42 0 -81 -3 -85
-7z"/>
<path d="M1238 975 c-4 -4 -7 -173 -8 -376 l0 -369 85 0 85 0 0 139 0 139 25
6 c48 12 80 -17 162 -150 42 -70 82 -128 88 -131 7 -2 51 -3 98 -1 l87 3 -88
135 c-48 74 -104 149 -124 166 l-36 32 39 18 c83 37 125 116 116 215 -7 76
-34 114 -106 147 -51 24 -69 26 -236 30 -99 2 -183 1 -187 -3z m311 -140 c34
-17 53 -63 44 -106 -11 -55 -84 -96 -159 -87 l-29 3 -3 103 -3 102 61 0 c34 0
74 -6 89 -15z"/>
<path d="M3870 605 l0 -375 85 0 85 0 0 150 0 150 155 0 155 0 0 -150 0 -150
85 0 85 0 -2 373 -3 372 -82 3 -83 3 0 -151 0 -150 -155 0 -155 0 0 150 0 150
-85 0 -85 0 0 -375z"/>
<path d="M2082 769 c-89 -15 -157 -61 -195 -133 -18 -34 -22 -57 -22 -141 0
-92 2 -104 28 -148 55 -93 147 -134 281 -125 165 11 256 114 256 288 -1 182
-149 292 -348 259z m139 -147 c51 -46 60 -169 15 -236 -40 -62 -151 -54 -190
13 -25 44 -27 142 -3 188 35 66 123 84 178 35z"/>
<path d="M3400 770 c-139 -25 -217 -114 -227 -260 -4 -50 0 -78 16 -121 40
-105 118 -159 242 -167 141 -8 233 38 285 145 23 46 28 68 27 132 -1 156 -76
247 -223 270 -36 6 -67 10 -70 10 -3 -1 -25 -5 -50 -9z m114 -132 c37 -16 57
-52 63 -111 7 -66 -10 -127 -43 -158 -20 -19 -36 -24 -75 -23 -42 0 -55 5 -82
32 -28 28 -32 39 -35 101 -5 79 12 127 56 153 32 20 80 23 116 6z"/>
<path d="M4820 769 c-30 -4 -73 -14 -95 -22 l-40 -14 -3 -61 c-2 -34 -1 -62 2
-62 3 0 25 10 48 22 29 16 66 24 114 26 67 4 72 3 92 -23 41 -52 38 -55 -98
-75 -104 -15 -159 -44 -187 -100 -13 -24 -23 -60 -23 -80 0 -52 38 -120 80
-142 64 -34 170 -19 214 31 26 29 36 26 36 -9 l0 -30 81 0 82 0 -5 193 c-4
165 -7 198 -25 237 -11 25 -29 53 -39 62 -48 42 -142 61 -234 47z m140 -319
c0 -99 -128 -159 -168 -78 -29 60 26 101 141 107 24 1 27 -3 27 -29z"/>
<path d="M910 495 l0 -265 85 0 85 0 0 265 0 265 -85 0 -85 0 0 -265z"/>
<path d="M5259 495 l75 -265 86 0 87 0 42 163 c23 89 44 169 47 177 3 8 21
-48 40 -125 19 -77 39 -157 45 -177 l10 -38 88 0 c84 0 89 1 93 22 5 22 134
470 143 496 3 9 -16 12 -74 12 l-78 0 -33 -172 c-18 -95 -36 -181 -39 -191 -4
-10 -25 62 -50 173 l-44 190 -81 0 -81 0 -44 -172 c-24 -95 -47 -179 -51 -187
-8 -15 -14 8 -63 244 l-23 110 -86 3 -85 3 76 -266z"/>
</g>
</svg>
