<svg width="53" height="27" xmlns="http://www.w3.org/2000/svg">
 <!-- Created with Method Draw - http://github.com/duopixel/Method-Draw/ -->

 <g>
  <title>background</title>
  <rect fill="none" id="canvas_background" height="29" width="55" y="-1" x="-1"/>
  <g display="none" overflow="visible" y="0" x="0" height="100%" width="100%" id="canvasGrid">
   <rect fill="url(#gridpattern)" stroke-width="0" y="0" x="0" height="100%" width="100%"/>
  </g>
 </g>
 <g>
  <title>Layer 1</title>
  <metadata transform="matrix(0.029295612147468342,0,0,0.029295612147468342,0,0) ">Created by potrace 1.16, written by Peter Selinger 2001-2019</metadata>
  <g stroke="null" id="svg_14">
   <g id="svg_4" fill="#000000" transform="matrix(0.0033583067797092266,0,0,-0.0026916685532408858,0.5385689285027793,18.076553488829447) ">
    <path stroke="null" fill="#ffffff" stroke-width="0" id="svg_5" d="m7814.940933,6199.889626c-196,-10 -437,-54 -751,-138c-562,-152 -1192,-447 -1832,-861c-173,-113 -181,-118 -254,-158c-121,-66 -166,-77 -348,-86c-171,-8 -223,-20 -279,-61c-61,-45 -93,-28 -246,129c-159,164 -391,443 -445,535c-17,29 -29,36 -78,47c-78,17 -82,18 -82,27c1,4 39,37 85,71c70,53 86,70 95,102c6,21 8,45 4,53c-4,11 10,20 53,36l58,21l-80,-4c-66,-3 -122,-17 -320,-81c-478,-153 -592,-193 -567,-200c41,-13 20,-95 -24,-95c-60,0 -313,-350 -358,-495c-31,-100 -47,-125 -141,-209c-257,-231 -328,-325 -341,-453c-14,-128 69,-307 113,-247c7,10 13,32 13,49c0,35 30,73 63,79c12,2 51,9 86,15c64,10 93,23 375,169c152,79 167,79 260,10c160,-120 549,-508 617,-616c38,-60 37,-90 -7,-167c-118,-213 -4,-409 346,-593c115,-60 172,-78 270,-86c153,-12 501,-118 558,-170c57,-52 56,-74 -14,-533c-23,-145 -18,-159 61,-168c101,-13 235,29 279,88c17,23 18,32 9,57c-14,36 -10,38 119,50c111,11 150,27 179,73c33,53 14,172 -32,200c-12,8 -28,0 -68,-32c-101,-79 -171,-44 -171,88c0,87 17,108 70,88c14,-5 63,-17 110,-27c77,-17 146,-27 540,-76c155,-19 300,-50 317,-67c18,-18 48,-169 87,-450c35,-247 75,-436 104,-492c8,-16 30,-51 48,-78c19,-27 36,-67 40,-92c3,-24 11,-49 18,-54c19,-16 55,8 104,69c25,30 51,56 59,58c8,2 29,-31 57,-90c64,-140 113,-168 182,-105c19,17 52,66 72,107c46,93 60,97 128,37c65,-57 95,-77 116,-77c26,0 75,82 88,147c13,62 32,78 105,89c56,8 104,47 106,86c0,13 2,32 5,43c2,11 5,73 6,137l3,117l22,-27c12,-15 41,-64 65,-109c62,-120 66,-119 165,51c43,72 55,116 48,168c-9,68 -37,138 -78,196c-18,25 -70,102 -117,171c-103,153 -357,483 -461,600c-42,48 -152,150 -250,229c-305,251 -639,556 -639,583c0,15 60,47 119,65c80,23 198,85 352,184c140,91 229,140 252,140c18,0 202,110 399,238c341,222 576,322 1058,451c381,102 446,122 520,159c51,25 82,48 98,71c37,57 25,137 -25,160c-62,28 -311,41 -907,47c-275,2 -501,5 -502,7c-1,1 38,26 87,56c50,29 123,79 162,111c170,135 412,387 469,488c17,30 37,56 44,59c17,6 45,11 71,12c26,1 58,30 46,42c-22,22 -374,41 -568,32zm75,-41c0,-23 -91,-46 -447,-112c-320,-60 -596,-157 -1009,-355c-332,-159 -630,-366 -829,-577c-104,-110 -140,-178 -149,-280c-15,-189 -111,-330 -340,-500c-131,-97 -169,-106 -253,-58c-60,34 -118,106 -160,195c-23,49 -28,74 -28,136c0,68 3,80 30,119c160,231 1229,859 1960,1153c311,124 820,264 1020,279c106,8 205,8 205,0zm-230,-202l48,-40l153,0l154,0l-25,-20c-21,-16 -41,-20 -127,-20c-59,0 -103,-4 -103,-10c0,-8 22,-16 103,-36c34,-8 35,-21 3,-36c-20,-9 -73,0 -300,53c-264,60 -275,64 -259,81c21,24 29,23 181,-12c72,-16 134,-30 138,-30c4,0 -10,16 -32,35l-39,35l24,20c13,11 25,20 28,20c3,0 27,-18 53,-40zm-51,-170c166,-63 170,-65 152,-83c-17,-18 -24,-18 -156,-3c-76,9 -139,15 -141,13c-2,-1 42,-21 96,-42c55,-22 100,-43 100,-46c0,-3 -8,-13 -17,-21c-16,-14 -39,-13 -233,14c-118,16 -221,31 -229,34c-10,3 -7,10 11,23c23,19 26,19 143,0c65,-11 122,-18 127,-17c4,2 -35,21 -87,42c-75,31 -92,42 -84,53c14,16 56,16 184,-1c55,-7 101,-12 103,-11c2,2 -36,17 -84,34c-120,44 -122,45 -93,65c13,9 27,15 30,14c4,-2 84,-32 178,-68zm-4002,24c2,-6 -52,-53 -119,-103c-103,-77 -126,-99 -141,-135l-18,-44l50,-223l50,-222l-20,-29c-11,-15 -28,-28 -37,-27c-50,2 -54,10 -112,225l-57,209l-118,65c-65,36 -120,70 -122,76c-5,14 98,51 301,109c88,25 194,61 235,79c78,35 102,39 108,20zm3791,-242l153,-38l-24,-22c-15,-14 -30,-20 -40,-16c-13,5 -17,0 -17,-20c0,-60 -153,-88 -240,-43c-54,27 -59,44 -25,85c14,16 25,33 25,36c0,3 -23,6 -50,6c-37,0 -52,-4 -57,-16c-3,-9 -1,-19 6,-23c8,-5 4,-14 -13,-30c-23,-22 -25,-22 -55,-6c-40,20 -47,39 -28,68c44,68 144,73 365,19zm-3804,-46c38,-16 75,-61 103,-126c28,-64 132,-199 243,-315c127,-133 200,-215 200,-225c0,-17 -147,-35 -360,-45c-216,-10 -366,-47 -601,-148c-129,-55 -200,-77 -251,-77c-75,0 -93,23 -104,132c-3,35 -13,77 -20,93c-19,41 -99,92 -226,144l-106,43l66,117c131,233 202,326 276,356c72,30 106,28 206,-11c52,-20 96,-37 97,-38c1,-1 27,-94 58,-206c31,-113 58,-213 61,-222c3,-11 32,-26 82,-42c42,-13 84,-27 93,-31c13,-5 27,14 63,85c26,49 45,94 41,99c-3,5 -14,51 -25,103c-11,51 -30,139 -43,195c-13,56 -21,106 -18,111c16,24 114,29 165,8zm3484,-96l263,-74l-26,-25l-25,-25l-62,17c-35,9 -91,25 -125,34l-61,17l-56,-43c-31,-24 -54,-47 -51,-51c3,-4 17,-11 32,-14c16,-4 66,-18 112,-32l83,-25l-23,-25c-12,-13 -29,-24 -36,-24c-7,0 -130,36 -274,80c-143,44 -262,80 -266,80c-9,0 19,30 39,41c13,7 46,1 123,-22l106,-31l54,42c30,23 55,46 55,50c0,3 -46,19 -102,35l-101,28l28,24c15,13 33,22 39,20c6,-2 129,-37 274,-77zm1592,-150c110,-10 152,-19 148,-33c-8,-25 -124,-68 -329,-122c-265,-70 -491,-144 -677,-224c-260,-111 -355,-163 -795,-435c-60,-36 -132,-78 -160,-92c-29,-15 -126,-75 -217,-134c-91,-59 -187,-119 -215,-135c-138,-76 -327,-129 -408,-114c-43,7 -87,43 -87,70c0,27 28,38 137,49c108,12 213,34 246,51c12,7 40,28 62,49c23,20 74,59 115,87c92,62 142,114 255,269c149,202 279,345 513,566l167,157l580,-1c319,0 618,-4 665,-8zm-1865,-81c123,-32 200,-84 188,-129c-8,-28 -57,-67 -101,-80c-86,-24 -225,-4 -323,46c-98,49 -89,121 18,159c46,17 162,19 218,4zm-252,-205c64,-16 150,-56 180,-82c37,-32 6,-95 -53,-108c-45,-10 -57,-16 -42,-21c10,-4 6,-13 -13,-33l-28,-29l-106,38c-58,21 -191,69 -295,106l-189,69l31,27l31,28l78,-28c124,-45 123,-45 123,-23c0,22 24,47 60,61c39,15 155,13 223,-5zm-1841,-100c17,-11 6,-40 -49,-138c-51,-89 -58,-107 -57,-156c0,-102 71,-217 236,-382c115,-116 226,-196 353,-257c58,-28 108,-57 111,-66c9,-21 -16,-56 -114,-157c-160,-166 -328,-296 -422,-326c-128,-42 -309,9 -426,120c-106,100 -147,200 -148,363c0,131 16,184 91,296c137,205 190,351 194,544c4,155 26,179 153,170c38,-3 73,-8 78,-11zm1605,-125c88,-28 147,-75 151,-121c3,-31 -2,-40 -33,-65c-20,-17 -55,-36 -78,-43c-113,-34 -307,10 -376,84c-80,86 45,184 214,169c33,-3 88,-14 122,-24zm-465,-165c58,-19 98,-55 98,-87c0,-31 5,-32 183,-48l138,-13l-35,-35l-35,-34l-146,13c-142,12 -147,12 -173,-7c-15,-11 -27,-24 -27,-28c0,-4 44,-25 98,-47c53,-23 97,-44 97,-49c0,-4 -17,-20 -37,-36l-38,-30l-272,121c-149,67 -274,124 -278,127c-10,11 176,142 229,161c58,21 122,18 198,-8zm-159,-365c111,-49 204,-92 207,-95c6,-6 -61,-63 -74,-64c-9,0 -103,42 -311,140l-110,52l35,29c19,16 38,29 43,29c5,0 100,-41 210,-91zm358,-441c71,-51 190,-151 399,-337c107,-95 247,-215 310,-266c115,-93 210,-185 210,-205c0,-56 -833,119 -1045,220c-76,36 -156,106 -193,169c-22,38 -27,58 -27,116c0,115 47,183 194,284c41,28 82,51 91,51c9,0 37,-14 61,-32zm1043,-903c45,-44 366,-474 421,-563c6,-9 26,-41 46,-72c20,-30 46,-88 58,-129l23,-75l-23,-50c-13,-28 -34,-68 -48,-89l-24,-38l-30,48c-27,44 -67,88 -263,286c-86,86 -139,167 -188,283c-54,130 -78,235 -74,325c5,115 38,139 102,74z"/>
    <path stroke="null" fill="#ffffff" stroke-width="0" id="svg_6" d="m2762.940933,5271.889626c-52,-22 -39,-33 30,-28c61,5 64,5 90,-27c32,-38 33,-54 8,-120c-26,-69 -4,-61 31,10c40,80 44,119 18,153c-19,24 -28,27 -83,27c-34,-1 -77,-7 -94,-15z"/>
    <path stroke="null" fill="#ffffff" stroke-width="0" id="svg_7" d="m2764.940933,5211.889626c-50,-50 -21,-135 45,-135c72,0 108,96 54,139c-35,28 -69,26 -99,-4z"/>
    <path stroke="null" fill="#ffffff" stroke-width="0" id="svg_8" d="m6639.940933,5143.889626c-14,-7 -26,-20 -28,-30c-8,-41 193,-96 246,-68c37,20 27,46 -25,69c-99,42 -152,50 -193,29z"/>
    <path stroke="null" fill="#ffffff" stroke-width="0" id="svg_9" d="m6365.940933,4933.889626c-35,-25 -15,-48 69,-79c83,-31 140,-37 174,-18c46,24 13,59 -86,92c-66,21 -132,23 -157,5z"/>
    <path stroke="null" fill="#ffffff" stroke-width="0" id="svg_10" d="m4759.940933,4057.889626c-145,-45 -320,-202 -376,-338c-29,-71 -30,-103 -4,-136c29,-37 73,-42 150,-18c200,63 412,317 368,442c-16,47 -76,68 -138,50z"/>
    <path stroke="null" fill="#ffffff" stroke-width="0" id="svg_11" d="m6088.940933,4707.889626c-31,-26 -19,-48 42,-78c93,-47 195,-48 219,-3c13,24 -20,51 -96,80c-70,26 -134,26 -165,1z"/>
    <path stroke="null" fill="#ffffff" stroke-width="0" id="svg_12" d="m5634.940933,4509.889626l-50,-36l64,-29c100,-44 104,-45 150,-3c23,21 41,44 41,51c0,24 -61,54 -110,54c-36,0 -55,-8 -95,-37z"/>
    <path stroke="null" fill="#ffffff" stroke-width="0" id="svg_13" d="m5909.940933,3634.889626c-82,-42 -110,-120 -75,-206c30,-69 99,-122 190,-142c97,-22 203,30 225,109c6,22 8,45 6,52c-2,8 -7,27 -11,42c-8,37 -79,113 -129,139c-22,11 -68,23 -101,25c-49,4 -68,0 -105,-19z"/>
   </g>
  </g>
  <text stroke="#ffffff" transform="matrix(0.5210050693608068,0,0,0.8129804210003845,-2.7364500598534347,5.951159477911508) " stroke-dasharray="5,2,2,2,2,2" xml:space="preserve" text-anchor="start" font-family="Arvo, sans-serif" font-size="19" id="svg_15" y="22.723994" x="6.299529" fill="#ffffff">iRoboHawk</text>
 </g>
</svg>