<svg width="1023" height="177" xmlns="http://www.w3.org/2000/svg" preserveAspectRatio="xMidYMid meet">
 <metadata>Created by potrace 1.16, written by Peter Selinger 2001-2019</metadata>

 <g>
  <title>background</title>
  <rect fill="none" id="canvas_background" height="602" width="802" y="-1" x="-1"/>
 </g>
 <g>
  <title>Layer 1</title>
  <g id="svg_1" fill="#000000" transform="translate(0,177) scale(0.10000000149011612,-0.10000000149011612) ">
   <path fill="#7f007f" id="svg_3" d="m2265,894l1,-755l149,0l150,0l3,53c2,29 7,57 13,63c6,5 9,3 9,-7c0,-8 18,-36 40,-61c49,-56 108,-74 184,-57c102,23 154,74 189,185c21,67 22,85 22,470c0,437 -3,468 -62,556c-62,95 -261,120 -351,44c-16,-13 -32,-22 -36,-18c-3,3 -6,69 -6,145l0,138l-152,0l-153,0l0,-756zm431,285c18,-20 19,-43 22,-384c3,-415 1,-435 -60,-435c-78,1 -82,14 -86,363c-5,338 0,415 29,452c25,31 68,33 95,4z"/>
   <path fill="#7f007f" id="svg_4" d="m6970,893l0,-758l144,3l143,3l6,72c3,40 4,163 3,274c-2,111 0,207 4,214c5,6 21,-31 39,-87c17,-55 57,-182 89,-284l57,-185l160,-5c88,-3 161,-5 163,-4c1,1 -53,164 -120,363l-122,361l26,78c14,42 57,168 96,280l69,202l-156,0l-156,0l-70,-210c-38,-115 -71,-207 -74,-204c-3,2 -6,147 -6,322l-1,317l-147,3l-147,3l0,-758z"/>
   <path fill="#7f007f" id="svg_5" d="m562,889l3,-750l145,0l145,0l3,345l2,346l25,0c40,0 73,-21 85,-53c6,-18 10,-148 10,-336l0,-306l142,2l143,2l0,333c0,378 -2,387 -78,432l-40,24l31,16c16,8 41,29 55,45c44,53 52,94 52,261c-1,196 -15,249 -83,319c-63,66 -94,71 -398,71l-244,0l2,-751zm414,457c17,-13 19,-27 19,-114c0,-123 -11,-142 -87,-142l-48,0l0,135l0,135l48,0c27,0 57,-6 68,-14z"/>
   <path fill="#7f007f" id="svg_6" d="m4022,889l3,-750l145,0l145,0l3,340l2,341l70,0l70,0l2,-341l3,-340l145,0l145,0l3,750l2,751l-150,0l-150,0l0,-270l0,-270l-70,0l-70,0l0,270l0,270l-150,0l-150,0l2,-751z"/>
   <path fill="#7f007f" id="svg_7" d="m8065,1630c-3,-5 -1,-10 6,-10c7,0 45,-36 86,-79c40,-44 97,-97 126,-118l52,-38l-211,-6c-115,-4 -220,-10 -232,-13c-30,-10 -29,-51 1,-70c12,-8 81,-31 152,-51c188,-54 245,-77 385,-159c215,-126 284,-164 323,-181c20,-8 37,-19 37,-24c0,-4 -63,-63 -141,-131c-140,-122 -196,-184 -303,-334c-63,-88 -71,-127 -35,-185l21,-34l21,33c18,29 22,31 28,14c4,-10 8,-34 8,-51c1,-26 6,-34 26,-39c17,-4 33,-21 46,-46l20,-39l32,20l32,20l32,-37l33,-37l20,24c12,13 25,31 30,40c7,14 12,13 33,-7l25,-23l26,54c20,43 64,248 66,307c1,22 32,33 148,50c72,10 148,22 168,26c35,6 35,6 32,-27c-3,-35 -6,-36 -63,-27c-14,2 -21,-3 -23,-20c-5,-32 14,-51 59,-58c22,-4 39,-12 39,-20c0,-30 98,-62 113,-36c3,4 0,51 -6,105c-9,82 -9,100 4,111c18,18 89,41 180,61c83,17 143,49 189,101c34,39 34,36 14,142c-6,30 -1,38 98,136c58,57 114,107 126,110c13,5 41,-3 79,-22c32,-17 78,-36 102,-43c24,-7 48,-21 55,-31c15,-25 25,-23 37,9c19,50 2,89 -70,166c-37,40 -83,101 -102,137c-19,36 -50,81 -70,101c-19,19 -38,43 -42,51c-5,14 -158,69 -260,94l-29,7l15,-30c9,-16 23,-35 31,-42c19,-16 21,-31 3,-31c-7,0 -46,-41 -87,-91c-94,-114 -137,-153 -159,-143c-9,4 -52,12 -96,19c-85,12 -125,29 -239,102c-105,68 -256,146 -383,197c-106,43 -294,97 -338,96c-11,-1 30,-14 90,-29c160,-42 289,-95 480,-199c161,-87 291,-172 339,-221c39,-40 39,-41 27,-82c-15,-50 -52,-89 -84,-89c-30,0 -96,47 -131,92c-14,19 -30,57 -36,86c-15,67 -74,133 -187,208c-152,102 -329,170 -556,214c-31,6 -55,16 -52,21c4,5 -27,9 -74,9c-44,0 -83,-4 -86,-10zm1678,-146c48,-15 87,-31 87,-35c0,-4 -15,-16 -34,-27c-29,-17 -38,-31 -56,-92c-13,-44 -26,-70 -33,-67c-13,4 -13,30 -1,121l7,59l-44,40c-24,21 -37,37 -29,34c8,-2 54,-17 103,-33zm-61,-59c3,-3 -1,-36 -9,-73c-20,-98 7,-149 60,-109c10,6 25,41 35,77c14,48 25,68 43,77c60,31 102,6 161,-95l29,-51l-44,-19c-48,-21 -57,-31 -72,-77c-14,-41 -37,-42 -147,-4c-62,21 -119,33 -174,37c-45,2 -88,8 -95,13c-9,5 1,23 37,64c27,31 63,77 81,102c18,26 38,50 45,54c15,10 42,12 50,4zm-1211,-184c52,-54 123,-130 159,-168c81,-87 102,-101 170,-110c61,-9 78,-35 26,-41c-45,-5 -106,23 -285,131c-248,149 -304,174 -533,242c-49,15 -88,30 -88,36c0,5 93,9 228,9l228,0l95,-99zm857,-33c7,-7 12,-26 12,-42c0,-49 19,-107 56,-167c27,-46 34,-67 34,-110c0,-95 -61,-159 -152,-159c-39,0 -54,6 -95,39c-69,56 -116,108 -108,120c3,6 25,21 47,32c49,25 134,103 154,141c18,35 18,82 -1,117c-8,16 -11,31 -8,35c11,10 48,7 61,-6zm-434,-378c42,-37 51,-71 31,-110c-20,-38 -75,-66 -190,-95c-96,-25 -215,-42 -215,-32c0,14 305,267 321,267c10,0 34,-14 53,-30zm-384,-297c0,-69 -31,-131 -110,-220l-74,-85l-15,31c-14,29 -13,35 6,74c29,60 163,237 180,237c8,0 13,-13 13,-37z"/>
   <path fill="#7f007f" id="svg_8" d="m9203,894c-16,-41 45,-97 120,-109c90,-16 85,58 -8,101c-58,28 -103,31 -112,8z"/>
   <path fill="#7f007f" id="svg_9" d="m1636,1415c-107,-30 -197,-115 -233,-220c-16,-44 -18,-93 -18,-425c0,-417 1,-427 71,-523c65,-89 225,-139 379,-118c189,27 282,126 305,326c12,113 13,545 0,644c-19,141 -90,246 -202,296c-52,23 -80,29 -158,31c-60,2 -113,-2 -144,-11zm172,-236c11,-11 23,-34 26,-51c3,-17 6,-180 6,-362c0,-295 -2,-335 -18,-366c-14,-29 -23,-36 -54,-38c-27,-2 -43,3 -57,17c-20,20 -21,31 -21,395c0,363 1,374 21,400c25,32 70,35 97,5z"/>
   <path fill="#7f007f" id="svg_10" d="m3392,1415c-105,-29 -170,-83 -215,-176c-39,-81 -47,-157 -47,-464c0,-310 8,-391 45,-470c64,-134 227,-204 413,-176c94,14 148,38 205,90c53,49 83,114 97,208c13,90 13,610 0,693c-21,131 -102,240 -209,281c-72,28 -214,35 -289,14zm167,-234c11,-11 23,-35 26,-53c3,-18 5,-189 3,-379c-3,-325 -4,-348 -22,-368c-25,-28 -77,-28 -102,0c-18,20 -19,43 -22,368c-2,190 0,361 3,379c8,41 37,72 70,72c14,0 34,-9 44,-19z"/>
   <path fill="#7f007f" id="svg_11" d="m5124,1420c-152,-32 -222,-120 -232,-292l-5,-88l147,0l146,0l0,54c0,62 27,106 65,106c14,0 32,-11 44,-26c18,-23 21,-41 21,-123l0,-97l-112,-38c-62,-21 -137,-50 -167,-64c-116,-57 -161,-156 -161,-351c0,-234 56,-341 191,-370c62,-14 120,-5 162,23c28,19 41,34 84,102c10,16 12,7 12,-51l1,-70l150,0l151,0l-3,535c-3,521 -4,536 -24,581c-29,62 -97,125 -164,150c-62,24 -233,35 -306,19zm186,-813c0,-230 -4,-247 -65,-247c-60,0 -70,29 -70,195c0,122 3,144 20,173c17,29 86,82 108,82c4,0 7,-91 7,-203z"/>
   <path fill="#7f007f" id="svg_12" d="m122,779l3,-641l145,1c79,1 147,4 149,7c7,7 10,1111 4,1202l-6,72l-148,0l-149,0l2,-641z"/>
   <path fill="#7f007f" id="svg_13" d="m5725,1383c9,-66 64,-510 91,-743c15,-124 34,-286 43,-360l16,-135l170,0l170,0l16,150c9,83 24,224 33,315c19,185 23,210 34,210c4,0 25,-145 46,-322c22,-178 42,-332 46,-343c7,-19 14,-20 156,-15l149,5l37,295c59,474 119,933 124,958l4,22l-143,0l-144,0l-12,-117c-31,-315 -53,-510 -61,-533c-7,-21 -9,-22 -9,-5c-1,17 -52,421 -77,603l-7,52l-132,0l-132,0l-21,-202c-12,-112 -27,-258 -34,-325c-19,-193 -22,-185 -68,202c-17,138 -33,267 -36,288l-6,37l-129,0l-129,0l5,-37z"/>
   <rect id="svg_15" height="18.29787" width="29.3617" y="14.65026" x="13.61702" fill-opacity="null" stroke-opacity="null" stroke-width="NaN" stroke="null" fill="#7f007f"/>
  </g>
  <rect id="svg_17" height="17.87234" width="28.51064" y="13" x="13" stroke-opacity="null" stroke-width="NaN" stroke="null" fill="#7f007f"/>
  <ellipse ry="3.40426" rx="3.61702" id="svg_18" cy="47.41622" cx="989.57445" stroke-opacity="null" stroke-width="NaN" stroke="null" fill="#7f007f"/>
  <ellipse ry="3.40426" rx="3.61702" id="svg_19" cy="105.71409" cx="874.2553" stroke-opacity="null" stroke-width="NaN" stroke="null" fill="#7f007f"/>
 </g>
</svg>