<?xml version="1.0" standalone="no"?>
<!DOCTYPE svg PUBLIC "-//W3C//DTD SVG 20010904//EN"
 "http://www.w3.org/TR/2001/REC-SVG-20010904/DTD/svg10.dtd">
<svg version="1.0" xmlns="http://www.w3.org/2000/svg"
 width="779.000000pt" height="623.000000pt" viewBox="0 0 779.000000 623.000000"
 preserveAspectRatio="xMidYMid meet">
<metadata>
Created by potrace 1.16, written by Peter Selinger 2001-2019
</metadata>
<g transform="translate(0.000000,623.000000) scale(0.100000,-0.100000)"
fill="#000000" stroke="none">
<path d="M6455 5373 c-196 -10 -437 -54 -751 -138 -562 -152 -1192 -447 -1832
-861 -173 -113 -181 -118 -254 -158 -121 -66 -166 -77 -348 -86 -171 -8 -223
-20 -279 -61 -61 -45 -93 -28 -246 129 -159 164 -391 443 -445 535 -17 29 -29
36 -78 47 -78 17 -82 18 -82 27 1 4 39 37 85 71 70 53 86 70 95 102 6 21 8 45
4 53 -4 11 10 20 53 36 l58 21 -80 -4 c-66 -3 -122 -17 -320 -81 -478 -153
-592 -193 -567 -200 41 -13 20 -95 -24 -95 -60 0 -313 -350 -358 -495 -31
-100 -47 -125 -141 -209 -257 -231 -328 -325 -341 -453 -14 -128 69 -307 113
-247 7 10 13 32 13 49 0 35 30 73 63 79 12 2 51 9 86 15 64 10 93 23 375 169
152 79 167 79 260 10 160 -120 549 -508 617 -616 38 -60 37 -90 -7 -167 -118
-213 -4 -409 346 -593 115 -60 172 -78 270 -86 153 -12 501 -118 558 -170 57
-52 56 -74 -14 -533 -23 -145 -18 -159 61 -168 101 -13 235 29 279 88 17 23
18 32 9 57 -14 36 -10 38 119 50 111 11 150 27 179 73 33 53 14 172 -32 200
-12 8 -28 0 -68 -32 -101 -79 -171 -44 -171 88 0 87 17 108 70 88 14 -5 63
-17 110 -27 77 -17 146 -27 540 -76 155 -19 300 -50 317 -67 18 -18 48 -169
87 -450 35 -247 75 -436 104 -492 8 -16 30 -51 48 -78 19 -27 36 -67 40 -92 3
-24 11 -49 18 -54 19 -16 55 8 104 69 25 30 51 56 59 58 8 2 29 -31 57 -90 64
-140 113 -168 182 -105 19 17 52 66 72 107 46 93 60 97 128 37 65 -57 95 -77
116 -77 26 0 75 82 88 147 13 62 32 78 105 89 56 8 104 47 106 86 0 13 2 32 5
43 2 11 5 73 6 137 l3 117 22 -27 c12 -15 41 -64 65 -109 62 -120 66 -119 165
51 43 72 55 116 48 168 -9 68 -37 138 -78 196 -18 25 -70 102 -117 171 -103
153 -357 483 -461 600 -42 48 -152 150 -250 229 -305 251 -639 556 -639 583 0
15 60 47 119 65 80 23 198 85 352 184 140 91 229 140 252 140 18 0 202 110
399 238 341 222 576 322 1058 451 381 102 446 122 520 159 51 25 82 48 98 71
37 57 25 137 -25 160 -62 28 -311 41 -907 47 -275 2 -501 5 -502 7 -1 1 38 26
87 56 50 29 123 79 162 111 170 135 412 387 469 488 17 30 37 56 44 59 17 6
45 11 71 12 26 1 58 30 46 42 -22 22 -374 41 -568 32z m75 -41 c0 -23 -91 -46
-447 -112 -320 -60 -596 -157 -1009 -355 -332 -159 -630 -366 -829 -577 -104
-110 -140 -178 -149 -280 -15 -189 -111 -330 -340 -500 -131 -97 -169 -106
-253 -58 -60 34 -118 106 -160 195 -23 49 -28 74 -28 136 0 68 3 80 30 119
160 231 1229 859 1960 1153 311 124 820 264 1020 279 106 8 205 8 205 0z
m-230 -202 l48 -40 153 0 154 0 -25 -20 c-21 -16 -41 -20 -127 -20 -59 0 -103
-4 -103 -10 0 -8 22 -16 103 -36 34 -8 35 -21 3 -36 -20 -9 -73 0 -300 53
-264 60 -275 64 -259 81 21 24 29 23 181 -12 72 -16 134 -30 138 -30 4 0 -10
16 -32 35 l-39 35 24 20 c13 11 25 20 28 20 3 0 27 -18 53 -40z m-51 -170
c166 -63 170 -65 152 -83 -17 -18 -24 -18 -156 -3 -76 9 -139 15 -141 13 -2
-1 42 -21 96 -42 55 -22 100 -43 100 -46 0 -3 -8 -13 -17 -21 -16 -14 -39 -13
-233 14 -118 16 -221 31 -229 34 -10 3 -7 10 11 23 23 19 26 19 143 0 65 -11
122 -18 127 -17 4 2 -35 21 -87 42 -75 31 -92 42 -84 53 14 16 56 16 184 -1
55 -7 101 -12 103 -11 2 2 -36 17 -84 34 -120 44 -122 45 -93 65 13 9 27 15
30 14 4 -2 84 -32 178 -68z m-4002 24 c2 -6 -52 -53 -119 -103 -103 -77 -126
-99 -141 -135 l-18 -44 50 -223 50 -222 -20 -29 c-11 -15 -28 -28 -37 -27 -50
2 -54 10 -112 225 l-57 209 -118 65 c-65 36 -120 70 -122 76 -5 14 98 51 301
109 88 25 194 61 235 79 78 35 102 39 108 20z m3791 -242 l153 -38 -24 -22
c-15 -14 -30 -20 -40 -16 -13 5 -17 0 -17 -20 0 -60 -153 -88 -240 -43 -54 27
-59 44 -25 85 14 16 25 33 25 36 0 3 -23 6 -50 6 -37 0 -52 -4 -57 -16 -3 -9
-1 -19 6 -23 8 -5 4 -14 -13 -30 -23 -22 -25 -22 -55 -6 -40 20 -47 39 -28 68
44 68 144 73 365 19z m-3804 -46 c38 -16 75 -61 103 -126 28 -64 132 -199 243
-315 127 -133 200 -215 200 -225 0 -17 -147 -35 -360 -45 -216 -10 -366 -47
-601 -148 -129 -55 -200 -77 -251 -77 -75 0 -93 23 -104 132 -3 35 -13 77 -20
93 -19 41 -99 92 -226 144 l-106 43 66 117 c131 233 202 326 276 356 72 30
106 28 206 -11 52 -20 96 -37 97 -38 1 -1 27 -94 58 -206 31 -113 58 -213 61
-222 3 -11 32 -26 82 -42 42 -13 84 -27 93 -31 13 -5 27 14 63 85 26 49 45 94
41 99 -3 5 -14 51 -25 103 -11 51 -30 139 -43 195 -13 56 -21 106 -18 111 16
24 114 29 165 8z m3484 -96 l263 -74 -26 -25 -25 -25 -62 17 c-35 9 -91 25
-125 34 l-61 17 -56 -43 c-31 -24 -54 -47 -51 -51 3 -4 17 -11 32 -14 16 -4
66 -18 112 -32 l83 -25 -23 -25 c-12 -13 -29 -24 -36 -24 -7 0 -130 36 -274
80 -143 44 -262 80 -266 80 -9 0 19 30 39 41 13 7 46 1 123 -22 l106 -31 54
42 c30 23 55 46 55 50 0 3 -46 19 -102 35 l-101 28 28 24 c15 13 33 22 39 20
6 -2 129 -37 274 -77z m1592 -150 c110 -10 152 -19 148 -33 -8 -25 -124 -68
-329 -122 -265 -70 -491 -144 -677 -224 -260 -111 -355 -163 -795 -435 -60
-36 -132 -78 -160 -92 -29 -15 -126 -75 -217 -134 -91 -59 -187 -119 -215
-135 -138 -76 -327 -129 -408 -114 -43 7 -87 43 -87 70 0 27 28 38 137 49 108
12 213 34 246 51 12 7 40 28 62 49 23 20 74 59 115 87 92 62 142 114 255 269
149 202 279 345 513 566 l167 157 580 -1 c319 0 618 -4 665 -8z m-1865 -81
c123 -32 200 -84 188 -129 -8 -28 -57 -67 -101 -80 -86 -24 -225 -4 -323 46
-98 49 -89 121 18 159 46 17 162 19 218 4z m-252 -205 c64 -16 150 -56 180
-82 37 -32 6 -95 -53 -108 -45 -10 -57 -16 -42 -21 10 -4 6 -13 -13 -33 l-28
-29 -106 38 c-58 21 -191 69 -295 106 l-189 69 31 27 31 28 78 -28 c124 -45
123 -45 123 -23 0 22 24 47 60 61 39 15 155 13 223 -5z m-1841 -100 c17 -11 6
-40 -49 -138 -51 -89 -58 -107 -57 -156 0 -102 71 -217 236 -382 115 -116 226
-196 353 -257 58 -28 108 -57 111 -66 9 -21 -16 -56 -114 -157 -160 -166 -328
-296 -422 -326 -128 -42 -309 9 -426 120 -106 100 -147 200 -148 363 0 131 16
184 91 296 137 205 190 351 194 544 4 155 26 179 153 170 38 -3 73 -8 78 -11z
m1605 -125 c88 -28 147 -75 151 -121 3 -31 -2 -40 -33 -65 -20 -17 -55 -36
-78 -43 -113 -34 -307 10 -376 84 -80 86 45 184 214 169 33 -3 88 -14 122 -24z
m-465 -165 c58 -19 98 -55 98 -87 0 -31 5 -32 183 -48 l138 -13 -35 -35 -35
-34 -146 13 c-142 12 -147 12 -173 -7 -15 -11 -27 -24 -27 -28 0 -4 44 -25 98
-47 53 -23 97 -44 97 -49 0 -4 -17 -20 -37 -36 l-38 -30 -272 121 c-149 67
-274 124 -278 127 -10 11 176 142 229 161 58 21 122 18 198 -8z m-159 -365
c111 -49 204 -92 207 -95 6 -6 -61 -63 -74 -64 -9 0 -103 42 -311 140 l-110
52 35 29 c19 16 38 29 43 29 5 0 100 -41 210 -91z m358 -441 c71 -51 190 -151
399 -337 107 -95 247 -215 310 -266 115 -93 210 -185 210 -205 0 -56 -833 119
-1045 220 -76 36 -156 106 -193 169 -22 38 -27 58 -27 116 0 115 47 183 194
284 41 28 82 51 91 51 9 0 37 -14 61 -32z m1043 -903 c45 -44 366 -474 421
-563 6 -9 26 -41 46 -72 20 -30 46 -88 58 -129 l23 -75 -23 -50 c-13 -28 -34
-68 -48 -89 l-24 -38 -30 48 c-27 44 -67 88 -263 286 -86 86 -139 167 -188
283 -54 130 -78 235 -74 325 5 115 38 139 102 74z"/>
<path d="M1403 4445 c-52 -22 -39 -33 30 -28 61 5 64 5 90 -27 32 -38 33 -54
8 -120 -26 -69 -4 -61 31 10 40 80 44 119 18 153 -19 24 -28 27 -83 27 -34 -1
-77 -7 -94 -15z"/>
<path d="M1405 4385 c-50 -50 -21 -135 45 -135 72 0 108 96 54 139 -35 28 -69
26 -99 -4z"/>
<path d="M5280 4317 c-14 -7 -26 -20 -28 -30 -8 -41 193 -96 246 -68 37 20 27
46 -25 69 -99 42 -152 50 -193 29z"/>
<path d="M5006 4107 c-35 -25 -15 -48 69 -79 83 -31 140 -37 174 -18 46 24 13
59 -86 92 -66 21 -132 23 -157 5z"/>
<path d="M3400 3231 c-145 -45 -320 -202 -376 -338 -29 -71 -30 -103 -4 -136
29 -37 73 -42 150 -18 200 63 412 317 368 442 -16 47 -76 68 -138 50z"/>
<path d="M4729 3881 c-31 -26 -19 -48 42 -78 93 -47 195 -48 219 -3 13 24 -20
51 -96 80 -70 26 -134 26 -165 1z"/>
<path d="M4275 3683 l-50 -36 64 -29 c100 -44 104 -45 150 -3 23 21 41 44 41
51 0 24 -61 54 -110 54 -36 0 -55 -8 -95 -37z"/>
<path d="M4550 2808 c-82 -42 -110 -120 -75 -206 30 -69 99 -122 190 -142 97
-22 203 30 225 109 6 22 8 45 6 52 -2 8 -7 27 -11 42 -8 37 -79 113 -129 139
-22 11 -68 23 -101 25 -49 4 -68 0 -105 -19z"/>
</g>
</svg>
