<?xml version="1.0" standalone="no"?>
<!DOCTYPE svg PUBLIC "-//W3C//DTD SVG 20010904//EN"
 "http://www.w3.org/TR/2001/REC-SVG-20010904/DTD/svg10.dtd">
<svg version="1.0" xmlns="http://www.w3.org/2000/svg"
 width="820.000000pt" height="661.000000pt" viewBox="0 0 820.000000 661.000000"
 preserveAspectRatio="xMidYMid meet">
<metadata>
Created by potrace 1.16, written by Peter Selinger 2001-2019
</metadata>
<g transform="translate(0.000000,661.000000) scale(0.100000,-0.100000)"
fill="#000000" stroke="none">
<path d="M6705 6534 c-16 -2 -82 -11 -145 -20 -63 -8 -187 -31 -275 -50 -764
-165 -1493 -489 -2350 -1044 -196 -127 -323 -193 -401 -208 -32 -7 -124 -16
-204 -22 -190 -13 -204 -16 -279 -57 -50 -27 -70 -33 -95 -28 -63 14 -470 455
-632 685 -60 86 -82 102 -161 115 -24 4 -45 11 -48 15 -3 5 34 40 83 79 90 71
112 100 112 151 0 31 5 36 65 63 l40 18 -75 -5 c-90 -6 -159 -25 -562 -156
-317 -104 -412 -139 -390 -147 32 -12 3 -103 -33 -103 -36 0 -159 -142 -269
-312 -56 -86 -98 -169 -130 -259 -28 -78 -69 -129 -206 -252 -265 -241 -337
-375 -295 -552 17 -74 55 -149 79 -158 21 -8 46 19 46 51 0 15 9 41 19 59 17
26 29 33 78 42 124 24 152 35 375 146 138 70 241 115 259 115 60 0 119 -43
338 -243 205 -189 426 -428 465 -504 23 -46 20 -72 -19 -154 -59 -125 -63
-210 -14 -314 49 -103 210 -239 396 -334 111 -57 180 -79 282 -91 174 -21 481
-109 578 -166 64 -37 77 -70 70 -179 -4 -49 -20 -181 -37 -292 -34 -231 -36
-266 -15 -287 39 -39 190 -28 293 21 64 30 93 70 85 119 -6 37 -14 34 144 53
157 20 197 57 190 173 -7 113 -46 144 -114 92 -48 -36 -99 -55 -129 -48 -51
13 -84 150 -51 214 16 30 11 30 157 -3 63 -15 257 -45 430 -67 310 -40 470
-69 509 -90 27 -14 45 -77 76 -277 97 -617 115 -697 185 -813 24 -39 49 -95
57 -123 7 -28 18 -54 25 -58 18 -11 52 14 116 82 30 33 58 56 63 53 5 -3 29
-45 54 -93 56 -113 97 -155 139 -147 41 9 88 56 127 130 40 76 57 96 82 96 10
0 53 -27 94 -60 41 -33 83 -60 94 -60 28 0 76 73 100 152 22 75 32 83 131 108
87 22 106 65 109 245 1 55 4 114 8 130 l6 30 37 -60 c19 -33 45 -78 56 -100
11 -22 30 -49 42 -60 l22 -20 33 38 c18 21 54 78 79 128 53 105 58 148 26 251
-27 89 -218 370 -480 708 -211 272 -256 318 -555 569 -198 166 -474 413 -559
499 -41 42 -57 65 -53 77 7 16 54 39 186 91 69 26 137 65 436 247 61 37 125
71 143 76 43 12 152 76 398 232 452 287 644 369 1249 534 478 129 581 170 621
247 19 36 18 108 -1 135 -35 50 -158 60 -930 73 -341 6 -621 13 -623 15 -2 1
35 26 82 54 239 145 542 438 721 698 11 16 30 24 65 29 45 6 92 36 78 50 -16
15 -147 24 -398 28 -151 3 -288 3 -305 0z m165 -44 c0 -15 -117 -46 -320 -85
-415 -80 -634 -143 -932 -270 -552 -234 -924 -468 -1204 -757 -123 -127 -158
-185 -175 -289 -25 -145 -32 -172 -64 -237 -48 -95 -115 -174 -230 -270 -181
-152 -251 -180 -338 -138 -60 29 -134 113 -178 200 -36 73 -39 84 -39 165 0
101 11 125 98 209 321 308 1476 958 2152 1210 309 116 786 243 990 265 78 8
240 7 240 -3z m-4645 -370 c3 -5 -29 -37 -72 -71 -43 -33 -99 -77 -125 -97
-52 -41 -98 -105 -98 -137 0 -11 23 -125 52 -253 l52 -232 -21 -28 c-11 -15
-32 -28 -46 -30 -38 -5 -58 34 -107 212 -23 83 -48 174 -56 203 l-15 52 -108
60 c-59 33 -118 69 -132 80 l-24 19 50 22 c27 12 144 50 260 85 115 35 242 77
280 94 74 32 100 37 110 21z m-16 -316 c45 -18 75 -53 119 -139 38 -77 148
-218 260 -337 148 -157 212 -230 212 -243 0 -19 -95 -32 -340 -50 -307 -21
-383 -38 -656 -146 -205 -81 -264 -99 -321 -99 -59 0 -89 30 -98 96 -16 120
-25 151 -58 182 -38 36 -133 88 -242 133 -44 17 -82 33 -84 35 -5 4 136 251
191 333 72 105 116 151 173 177 69 32 117 30 233 -12 l99 -35 63 -232 c34
-128 68 -238 74 -244 6 -7 52 -26 101 -43 105 -36 95 -41 156 85 l38 80 -44
195 c-56 249 -57 262 -25 271 44 12 109 9 149 -7z m5586 -274 c38 -6 73 -14
78 -19 24 -24 -81 -66 -389 -151 -561 -156 -858 -282 -1304 -551 -129 -78
-298 -179 -375 -224 -77 -44 -228 -137 -335 -205 -207 -132 -291 -173 -434
-214 -115 -34 -200 -35 -247 -3 -22 14 -35 32 -37 49 -4 32 21 41 153 58 152
19 235 41 281 74 266 194 296 222 442 415 183 243 295 367 570 628 l174 166
677 -6 c372 -4 707 -12 746 -17z m-4387 -406 c34 -9 28 -34 -38 -160 -68 -130
-74 -166 -39 -258 33 -90 95 -173 234 -312 139 -140 249 -221 407 -300 49 -25
91 -51 94 -58 10 -27 -27 -76 -149 -199 -146 -147 -286 -257 -383 -304 -63
-30 -81 -34 -150 -34 -141 1 -266 54 -370 158 -111 112 -149 222 -142 418 3
98 7 117 35 177 17 37 49 93 71 125 130 193 183 343 197 558 12 175 26 195
140 195 38 0 80 -3 93 -6z m1509 -1223 c43 -33 194 -160 335 -284 141 -124
310 -270 375 -324 153 -127 246 -218 241 -235 -7 -20 -48 -21 -171 -3 -338 48
-824 173 -973 248 -66 33 -157 117 -191 175 -23 38 -27 57 -27 121 1 94 23
148 88 213 60 61 191 148 221 148 13 0 58 -26 102 -59z m1079 -943 c63 -56
390 -490 500 -666 31 -49 66 -122 81 -170 l28 -84 -45 -86 c-25 -47 -50 -87
-56 -89 -6 -2 -24 18 -42 45 -17 26 -102 122 -189 212 -208 216 -269 308 -331
500 -44 137 -54 289 -23 348 16 30 34 28 77 -10z"/>
<path d="M1355 5543 c-37 -8 -75 -25 -75 -34 0 -5 31 -9 69 -9 65 0 71 -2 95
-31 30 -36 32 -49 10 -112 -33 -98 7 -65 49 41 38 94 7 153 -80 151 -26 -1
-57 -3 -68 -6z"/>
<path d="M1315 5465 c-36 -35 -35 -96 1 -124 37 -29 70 -26 105 8 54 54 23
141 -51 141 -19 0 -40 -9 -55 -25z"/>
<path d="M3448 4205 c-20 -7 -63 -30 -95 -51 -224 -143 -364 -374 -277 -461
23 -23 31 -25 87 -21 195 16 467 278 467 450 0 39 -5 50 -31 72 -35 30 -89 34
-151 11z"/>
<path d="M4750 3769 c-40 -17 -89 -58 -105 -89 -21 -41 -19 -106 6 -157 30
-62 91 -110 172 -135 61 -18 76 -19 121 -9 131 29 188 129 136 237 -24 49 -97
119 -144 139 -45 19 -155 27 -186 14z"/>
<path d="M1050 1385 l0 -105 105 0 105 0 0 105 0 105 -105 0 -105 0 0 -105z"/>
<path d="M1400 875 l0 -615 105 0 105 0 0 260 0 260 33 0 32 0 75 -258 75
-257 113 -3 c61 -1 112 1 112 5 0 5 -41 130 -90 278 -59 176 -86 271 -79 274
27 9 90 76 111 119 21 43 23 60 23 202 0 155 0 155 -31 210 -37 66 -101 113
-174 129 -28 6 -132 11 -230 11 l-180 0 0 -615z m375 390 c23 -22 25 -31 25
-128 0 -139 -8 -150 -114 -155 l-76 -4 0 156 0 156 70 0 c62 0 74 -3 95 -25z"/>
<path d="M2810 875 l0 -615 105 0 105 0 0 40 c0 22 3 40 6 40 3 0 17 -14 31
-30 35 -43 74 -60 131 -60 65 0 109 30 142 95 25 49 25 54 28 338 4 332 -2
372 -63 426 -42 37 -71 45 -133 38 -39 -4 -53 -12 -89 -50 l-43 -46 0 83 c0
46 -3 144 -7 219 l-6 137 -104 0 -103 0 0 -615z m324 70 c24 -24 28 -70 24
-273 -3 -170 -5 -192 -22 -211 -19 -21 -60 -27 -83 -13 -26 17 -33 69 -33 258
0 227 7 254 65 254 18 0 40 -7 49 -15z"/>
<path d="M4160 875 l0 -615 105 0 105 0 0 255 0 255 80 0 80 0 0 -255 0 -255
110 0 110 0 0 615 0 615 -110 0 -110 0 0 -260 0 -260 -80 0 -80 0 0 260 0 260
-105 0 -105 0 0 -615z"/>
<path d="M6570 875 l0 -615 105 0 105 0 0 102 c0 99 1 103 37 165 20 34 40 63
43 63 4 0 12 -19 19 -42 7 -24 34 -98 59 -165 l47 -123 113 0 c62 0 111 3 109
7 -13 20 -237 516 -237 524 0 4 45 83 100 174 55 91 100 168 100 171 0 3 -47
3 -106 2 l-105 -3 -33 -65 c-111 -220 -130 -256 -137 -264 -5 -6 -9 142 -9
337 l0 347 -105 0 -105 0 0 -615z"/>
<path d="M2288 1136 c-56 -20 -85 -42 -116 -88 l-27 -41 -3 -289 -3 -289 25
-54 c41 -91 125 -130 260 -123 118 7 185 46 221 130 12 31 15 87 15 320 0 254
-2 287 -19 324 -23 51 -81 99 -137 113 -58 15 -171 13 -216 -3z m162 -206 c15
-28 13 -429 -3 -460 -15 -29 -67 -39 -86 -17 -8 11 -11 81 -9 253 l3 238 24
13 c28 13 55 4 71 -27z"/>
<path d="M3632 1134 c-24 -9 -59 -31 -77 -50 -57 -56 -65 -104 -65 -375 0
-295 6 -328 70 -390 57 -56 117 -74 224 -67 120 8 194 59 222 155 13 43 15
103 12 321 l-3 267 -28 47 c-18 31 -44 57 -74 75 -41 24 -59 28 -143 30 -67 2
-108 -2 -138 -13z m168 -193 c6 -12 10 -108 10 -241 0 -133 -4 -229 -10 -241
-13 -23 -62 -26 -84 -3 -14 13 -16 49 -16 240 0 136 4 233 10 245 7 13 21 19
45 19 24 0 38 -6 45 -19z"/>
<path d="M5050 1129 c-82 -37 -126 -98 -137 -190 l-6 -49 99 0 99 0 15 33 c12
25 22 33 48 35 55 5 72 -19 72 -98 l0 -67 -72 -6 c-95 -7 -154 -29 -200 -74
-54 -53 -73 -110 -73 -218 1 -156 58 -235 176 -243 69 -5 109 9 144 50 l25 30
0 -36 0 -36 100 0 100 0 0 353 c0 349 0 352 -24 402 -45 95 -115 135 -241 135
-59 0 -92 -6 -125 -21z m190 -583 c0 -87 -16 -113 -71 -122 -29 -5 -41 -2 -58
15 -37 37 -21 142 26 170 10 6 37 11 61 11 l42 0 0 -74z"/>
<path d="M1050 700 l0 -440 105 0 105 0 0 440 0 440 -105 0 -105 0 0 -440z"/>
<path d="M5551 1058 c10 -46 53 -244 96 -440 l78 -358 85 0 85 0 44 256 c24
141 46 268 50 281 4 16 24 -74 56 -254 l50 -278 84 0 84 0 93 425 c52 234 94
431 94 438 0 9 -26 12 -99 12 l-99 0 -6 -27 c-3 -16 -17 -129 -31 -253 -14
-124 -29 -233 -33 -243 -5 -12 -20 50 -40 166 -18 101 -40 223 -49 270 l-16
87 -82 0 c-83 0 -83 0 -89 -27 -3 -16 -24 -131 -46 -258 -23 -126 -43 -237
-47 -245 -4 -11 -65 431 -72 523 -1 4 -48 7 -105 7 l-104 0 19 -82z"/>
</g>
</svg>
