<?xml version="1.0" standalone="no"?>
<!DOCTYPE svg PUBLIC "-//W3C//DTD SVG 20010904//EN"
 "http://www.w3.org/TR/2001/REC-SVG-20010904/DTD/svg10.dtd">
<svg version="1.0" xmlns="http://www.w3.org/2000/svg"
 width="728.000000pt" height="556.000000pt" viewBox="0 0 728.000000 556.000000"
 preserveAspectRatio="xMidYMid meet">
<metadata>
Created by potrace 1.16, written by Peter Selinger 2001-2019
</metadata>
<g transform="translate(0.000000,556.000000) scale(0.100000,-0.100000)"
fill="#007b8b" stroke="none">
<path d="M6005 5504 c-212 -15 -580 -81 -830 -149 -506 -138 -1081 -382 -1614
-685 -213 -121 -355 -188 -421 -200 -30 -5 -124 -14 -208 -19 -139 -9 -160
-13 -221 -41 -79 -37 -90 -35 -177 36 -114 91 -402 384 -500 508 -26 33 -40
41 -89 51 -32 6 -60 16 -62 21 -2 5 27 29 63 54 78 53 104 83 104 120 0 23 7
31 37 43 l38 16 -51 0 c-59 1 -175 -28 -547 -135 -289 -83 -304 -89 -287 -109
19 -23 1 -55 -46 -77 -87 -40 -246 -238 -334 -413 l-55 -110 -119 -96 c-233
-191 -290 -265 -290 -384 0 -98 62 -206 104 -180 5 3 12 21 16 40 9 49 31 64
122 80 79 13 171 47 328 120 170 79 198 86 257 62 102 -43 588 -462 646 -558
28 -46 27 -59 -14 -142 -74 -151 -30 -266 150 -387 154 -104 301 -162 460
-180 118 -14 261 -46 400 -90 122 -39 165 -75 165 -137 0 -22 -13 -121 -30
-221 -35 -215 -38 -268 -12 -276 77 -21 186 -10 261 27 51 26 72 53 65 83 -3
12 -2 24 3 27 4 3 53 10 108 17 105 12 126 19 163 53 41 38 21 177 -26 177 -9
0 -39 -14 -67 -30 -59 -35 -104 -38 -130 -10 -24 27 -32 127 -13 153 14 18 17
18 109 -1 95 -21 189 -34 529 -72 227 -26 331 -46 348 -68 19 -25 29 -69 68
-292 65 -374 86 -455 146 -543 22 -32 46 -78 55 -103 20 -59 38 -57 111 11 33
30 62 55 65 55 4 0 25 -31 47 -69 95 -160 148 -162 246 -9 28 44 50 68 62 68
10 0 43 -17 73 -39 80 -56 96 -63 118 -51 20 10 81 122 81 147 0 16 50 40 102
48 21 3 50 16 64 28 24 21 26 30 34 150 4 70 9 129 12 132 2 3 28 -31 56 -74
58 -88 75 -106 96 -98 20 8 114 152 125 194 15 53 -4 124 -53 197 -105 156
-463 576 -597 700 -35 33 -161 131 -279 219 -230 172 -489 378 -530 422 -24
26 -24 27 -6 40 10 8 55 26 100 41 109 37 175 67 346 161 80 43 165 87 190 97
95 38 182 82 391 197 373 207 568 282 984 384 425 103 510 126 578 157 78 36
107 67 107 113 0 45 -27 74 -77 86 -65 14 -390 29 -648 29 -126 0 -328 3 -448
7 l-218 6 53 30 c118 66 199 120 284 188 134 107 268 233 326 307 64 81 64 82
109 82 35 0 80 23 68 35 -19 18 -425 39 -574 29z m90 -33 c10 -17 -36 -28
-344 -82 -257 -44 -426 -84 -606 -144 -569 -190 -1046 -449 -1277 -693 -73
-78 -95 -119 -109 -201 -25 -157 -87 -247 -254 -371 -105 -77 -188 -121 -232
-122 -80 -1 -166 62 -228 166 -32 54 -35 67 -35 135 l0 75 58 56 c117 114 398
282 842 504 688 343 1164 518 1711 630 240 49 459 71 474 47z m-4125 -295 c0
-8 -42 -42 -92 -76 -186 -126 -180 -110 -121 -350 l48 -190 -27 -27 c-23 -23
-31 -25 -51 -16 -26 12 -41 48 -102 246 l-36 118 -115 57 c-63 31 -114 59
-114 63 0 11 79 37 270 88 102 27 217 61 255 75 83 30 85 30 85 12z m10 -251
c18 -9 53 -51 86 -103 43 -65 104 -133 242 -269 220 -216 224 -197 -45 -213
-331 -20 -446 -43 -744 -149 -64 -23 -142 -44 -175 -47 -83 -9 -102 8 -120
106 -9 48 -22 82 -37 98 -27 30 -130 82 -219 111 -37 13 -70 27 -73 31 -7 12
150 249 210 317 87 98 176 118 321 69 l80 -26 58 -183 c31 -100 60 -185 64
-189 5 -5 44 -19 87 -32 l80 -24 22 25 c12 15 33 49 46 77 l25 51 -38 155
c-40 157 -45 191 -33 203 13 13 134 7 163 -8z m4983 -210 c75 -20 2 -50 -336
-134 -527 -133 -750 -217 -1177 -445 -102 -54 -230 -121 -285 -148 -55 -28
-188 -99 -296 -159 -209 -117 -308 -158 -439 -185 -120 -24 -210 -4 -210 46 0
26 7 29 102 41 172 21 252 39 288 65 19 14 67 46 105 71 127 82 166 117 280
248 141 162 306 323 500 487 l150 127 645 -3 c355 -2 657 -7 673 -11z m-3949
-314 c16 -3 31 -11 33 -17 2 -5 -20 -48 -49 -95 -46 -74 -52 -90 -53 -139 0
-96 70 -196 236 -335 114 -95 177 -136 317 -202 85 -40 112 -57 112 -72 0 -46
-307 -299 -446 -368 -73 -35 -84 -38 -164 -38 -94 1 -163 19 -247 67 -66 37
-143 114 -174 176 -22 42 -24 60 -24 172 0 143 2 149 100 285 110 154 149 255
163 422 9 104 19 128 57 143 23 10 97 10 139 1z m1381 -976 c50 -34 192 -140
317 -236 124 -96 271 -207 325 -246 113 -84 173 -137 173 -154 0 -28 -318 15
-643 87 -302 67 -402 104 -489 183 -63 56 -78 87 -78 159 0 97 47 155 198 243
45 26 73 37 87 33 11 -4 61 -34 110 -69z m919 -704 c47 -30 379 -418 469 -549
19 -29 45 -78 57 -110 25 -65 23 -79 -30 -160 l-34 -51 -52 57 c-28 31 -106
106 -173 166 -67 60 -140 134 -162 164 -47 62 -121 215 -138 284 -16 69 -14
169 5 196 18 27 19 27 58 3z"/>
<path d="M1160 4717 l-25 -11 28 -4 c33 -4 33 -5 2 -36 -29 -29 -31 -52 -9
-84 23 -34 89 -28 117 10 17 23 19 31 9 53 -7 14 -27 32 -45 40 -25 11 -27 14
-11 15 12 0 33 -9 48 -21 28 -22 34 -58 16 -105 -16 -42 -4 -40 25 5 35 56 41
95 21 126 -15 23 -23 25 -84 24 -37 0 -78 -5 -92 -12z"/>
<path d="M3077 3690 c-100 -31 -242 -131 -307 -214 -94 -123 -81 -209 32 -208
125 2 332 143 397 270 27 53 28 113 2 136 -23 21 -85 29 -124 16z"/>
<path d="M4188 3330 c-50 -27 -78 -66 -78 -107 0 -132 206 -229 340 -160 89
44 101 122 33 198 -52 58 -105 81 -188 86 -56 3 -77 -1 -107 -17z"/>
<path d="M6409 1394 c-23 -25 -24 -29 -21 -172 2 -81 -2 -292 -8 -469 -10
-284 -10 -325 4 -351 17 -34 33 -42 82 -42 25 0 42 8 59 26 22 23 25 36 25 99
0 110 7 133 51 162 21 14 42 22 47 19 10 -6 136 -172 189 -249 38 -55 68 -70
114 -57 48 14 69 38 69 79 0 31 -18 73 -40 91 -3 3 -28 34 -54 70 -27 36 -71
92 -97 126 l-48 61 109 108 c123 121 129 136 78 184 -25 23 -42 31 -71 31 -34
0 -48 -10 -170 -126 -72 -69 -140 -130 -150 -135 -16 -9 -17 1 -11 178 9 242
0 337 -32 369 -33 34 -92 33 -125 -2z"/>
<path d="M2262 1395 c-60 -26 -62 -45 -62 -540 0 -430 1 -446 20 -465 26 -26
66 -35 97 -21 20 9 42 8 105 -6 92 -19 175 -11 253 27 62 30 133 104 164 170
23 48 26 68 26 160 0 93 -3 112 -26 161 -55 117 -152 187 -271 196 -59 5 -108
-6 -191 -42 -17 -7 -18 2 -16 157 1 103 -3 172 -9 185 -14 26 -52 33 -90 18z
m359 -508 c104 -69 104 -265 0 -334 -59 -39 -139 -41 -233 -4 l-28 11 0 138 0
138 33 19 c105 62 169 71 228 32z"/>
<path d="M3763 1366 l-28 -24 -7 -334 c-4 -183 -11 -387 -17 -452 -8 -97 -7
-125 4 -153 24 -56 101 -68 144 -21 16 16 20 44 26 163 4 78 10 147 14 153 8
14 312 71 419 79 l82 6 1 -144 c1 -180 9 -245 35 -264 50 -37 117 -24 142 28
11 23 12 58 4 180 -9 141 6 583 24 713 5 36 2 45 -22 68 -80 73 -157 -10 -175
-188 -4 -50 -9 -119 -9 -153 l0 -62 -47 -6 c-96 -11 -251 -35 -351 -54 l-104
-19 8 227 7 226 -28 28 c-36 35 -83 36 -122 3z"/>
<path d="M685 1347 l-35 -35 -2 -358 c-5 -598 -7 -542 25 -570 38 -32 90 -32
122 1 29 28 29 27 25 164 l-2 104 28 -7 c84 -20 242 -110 354 -202 90 -73 107
-80 153 -60 44 18 61 48 53 91 -8 41 -92 121 -201 193 l-75 49 42 19 c264 119
244 393 -40 559 -87 51 -163 71 -309 81 l-102 7 -36 -36z m328 -190 c114 -52
187 -150 152 -204 -39 -59 -161 -102 -287 -103 l-58 0 0 171 0 172 68 -5 c44
-3 89 -14 125 -31z"/>
<path d="M394 1349 c-71 -20 -95 -108 -41 -155 41 -35 75 -40 116 -18 109 58
45 204 -75 173z"/>
<path d="M344 1037 c-25 -22 -27 -29 -35 -153 -11 -183 -11 -412 2 -457 18
-66 100 -86 149 -37 18 18 20 34 20 163 0 78 3 212 7 298 l6 157 -26 26 c-34
34 -85 35 -123 3z"/>
<path d="M4979 1046 c-108 -29 -203 -110 -252 -214 -28 -60 -32 -77 -32 -157
1 -101 13 -152 51 -211 71 -109 231 -147 377 -89 l68 28 22 -21 c52 -48 124
-42 149 13 10 22 7 36 -23 103 -32 72 -34 85 -37 204 -3 89 0 141 10 175 8 28
11 58 7 70 -12 34 -67 72 -136 93 -73 22 -136 25 -204 6z m146 -276 c1 -69 5
-146 10 -172 7 -46 6 -48 -26 -67 -44 -27 -129 -37 -165 -20 -15 8 -37 30 -48
49 -29 49 -29 159 1 215 42 79 115 127 187 122 l40 -2 1 -125z"/>
<path d="M5480 1053 c-37 -13 -60 -47 -60 -86 0 -47 53 -368 75 -450 25 -97
81 -187 115 -187 65 0 98 46 170 233 29 75 54 136 56 134 2 -2 13 -52 24 -111
35 -178 82 -256 154 -256 85 0 131 93 242 487 41 146 44 165 32 190 -30 63
-148 61 -164 -4 -59 -236 -102 -385 -107 -368 -3 11 -17 83 -31 160 -14 77
-30 155 -36 174 -15 52 -47 81 -90 81 -68 0 -83 -22 -147 -215 -31 -96 -61
-171 -65 -167 -4 4 -17 79 -28 167 -12 90 -28 170 -36 183 -22 33 -67 49 -104
35z"/>
<path d="M1699 1036 c-64 -23 -110 -58 -153 -116 -60 -81 -79 -150 -74 -263 5
-106 27 -161 89 -225 61 -61 121 -86 209 -86 94 -1 162 28 221 91 161 175 125
508 -65 594 -49 22 -172 25 -227 5z m163 -167 c51 -27 77 -182 43 -262 -18
-44 -66 -84 -109 -92 -45 -9 -101 16 -126 57 -47 77 -12 239 63 287 35 23 97
27 129 10z"/>
<path d="M3174 1029 c-67 -26 -135 -94 -176 -177 -31 -62 -33 -74 -33 -167 0
-122 19 -179 82 -246 61 -65 128 -94 223 -93 89 0 144 22 206 84 176 174 131
538 -75 608 -53 18 -168 14 -227 -9z m185 -165 c35 -25 51 -75 51 -160 0 -60
-5 -85 -22 -115 -22 -39 -84 -79 -124 -79 -34 0 -87 35 -106 71 -33 62 -17
188 32 247 42 50 123 68 169 36z"/>
</g>
</svg>
