<svg width="782" height="582" xmlns="http://www.w3.org/2000/svg" preserveAspectRatio="xMidYMid meet">
 <metadata>Created by potrace 1.16, written by Peter Selinger 2001-2019</metadata>

 <g>
  <title>background</title>
  <rect fill="none" id="canvas_background" height="402" width="582" y="-1" x="-1"/>
 </g>
 <g>
  <title>Layer 1</title>
  <g id="svg_1" fill="#fff" transform="translate(0,582) scale(0.10000000149011612,-0.10000000149011612) ">
   <path id="svg_2" d="m6360,5689c-219,-11 -262,-18 -630,-99c-340,-75 -618,-157 -900,-265c-52,-20 -131,-49 -175,-64c-82,-29 -227,-94 -464,-207c-73,-35 -138,-64 -145,-64c-6,0 -47,-21 -91,-46c-184,-107 -461,-251 -580,-301c-102,-44 -153,-53 -372,-68c-195,-13 -215,-16 -262,-41c-35,-18 -59,-24 -76,-20c-81,20 -332,237 -558,482l-142,153l-72,16c-45,10 -73,21 -73,29c0,7 27,28 60,45c88,47 119,76 131,126c10,40 14,44 57,56c43,12 45,13 18,17c-15,2 -66,-2 -113,-8c-83,-11 -149,-27 -458,-110c-82,-22 -205,-54 -273,-70c-68,-17 -132,-35 -144,-41c-18,-10 -19,-12 -3,-29c24,-27 11,-56 -34,-74c-93,-37 -296,-261 -371,-410c-22,-43 -40,-84 -40,-91c0,-29 -145,-153 -352,-303c-40,-29 -122,-137 -137,-181c-27,-83 -5,-200 49,-260c35,-37 50,-36 68,5c7,16 16,35 20,43c12,22 73,49 140,61c88,15 204,56 297,103c109,54 231,97 280,97c22,0 63,-11 90,-24c49,-22 326,-223 340,-246c4,-6 21,-20 38,-30c17,-11 95,-78 173,-150c153,-140 193,-195 175,-242c-5,-13 -16,-29 -24,-36c-26,-22 -59,-114 -59,-164c0,-91 82,-194 228,-284c171,-106 301,-154 484,-179c63,-9 153,-24 200,-35c47,-11 113,-24 147,-30c120,-21 273,-83 293,-119c18,-34 11,-145 -19,-303c-40,-213 -43,-235 -36,-257c13,-42 115,-53 238,-25c81,18 102,27 135,57c24,22 31,60 9,51c-24,-9 -130,22 -141,41c-6,10 -21,29 -34,43c-56,62 -53,125 16,341c36,111 52,135 74,113c9,-9 0,-47 -30,-144c-53,-171 -55,-181 -48,-224c5,-24 14,-38 32,-44c13,-5 24,-15 24,-22c1,-47 78,-67 218,-56c56,4 119,12 140,17c44,12 87,54 96,94c9,37 -11,101 -41,128l-23,23l-28,-21c-80,-59 -152,-70 -191,-29c-19,20 -22,32 -19,92l3,69l31,3c18,2 81,-6 140,-18c178,-35 367,-59 574,-75c207,-16 299,-30 341,-51c34,-17 46,-60 104,-374c65,-357 96,-462 158,-536c31,-37 53,-80 62,-122c11,-53 47,-44 121,29c40,39 68,60 77,56c8,-3 29,-32 47,-65c17,-33 47,-76 65,-96c27,-30 39,-36 73,-36c51,0 77,21 141,115c43,63 51,70 80,68c18,0 47,-13 67,-30c132,-104 146,-100 213,50c32,70 46,83 109,93c56,9 101,38 117,77c7,18 17,86 22,152l8,120l55,-80c59,-84 94,-125 108,-125c14,0 100,115 134,180c30,58 31,62 19,114c-15,69 -48,120 -183,283c-126,153 -183,217 -352,396c-156,166 -264,262 -401,354c-160,108 -170,115 -283,195c-213,151 -452,340 -452,357c0,11 65,40 189,83c119,41 142,52 405,186c87,45 166,82 175,82c24,0 177,69 256,116c39,23 90,50 115,61c25,11 98,50 162,86c65,37 124,67 131,67c7,0 54,19 103,43c142,68 575,203 749,233c50,8 133,26 185,39c52,13 123,29 157,35c84,15 319,86 356,107c66,39 92,119 52,163c-45,50 -205,61 -935,69l-605,6l105,60c124,70 211,127 300,196c105,81 266,228 341,311c60,66 75,77 112,83c55,9 82,24 69,37c-10,10 -335,28 -482,26c-47,0 -159,-5 -250,-9zm200,-19c0,-15 -157,-60 -265,-76c-300,-43 -496,-78 -587,-105c-290,-85 -372,-111 -473,-149c-60,-23 -152,-58 -204,-76c-112,-41 -394,-171 -471,-218c-30,-18 -77,-44 -105,-58c-122,-61 -398,-274 -465,-359c-40,-50 -56,-90 -69,-176c-27,-177 -129,-299 -367,-439c-156,-92 -243,-85 -353,27c-110,111 -143,242 -82,326c16,22 41,50 57,62c69,54 198,141 208,141c6,0 36,16 66,37c29,20 97,58 149,86c53,27 121,63 151,80c93,53 113,64 175,93c33,15 101,50 152,76c51,26 97,48 104,48c6,0 48,19 93,41c44,23 143,66 220,96c76,29 161,65 189,80c28,14 87,38 132,53c44,16 123,45 175,65c225,87 547,184 795,240c194,44 483,101 555,108c77,8 220,7 220,-3zm-237,-190l55,-40l153,0c120,0 150,-3 141,-12c-7,-7 -57,-15 -125,-18c-99,-5 -109,-7 -84,-18c16,-7 36,-12 46,-12c9,0 26,-7 37,-15c16,-13 17,-16 4,-25c-23,-15 -62,-12 -183,15c-62,14 -183,37 -270,50c-88,14 -163,28 -168,31c-20,12 14,34 51,34c31,0 214,-36 285,-57c15,-4 10,5 -17,34c-44,45 -46,51 -15,63c32,13 29,14 90,-30zm-108,-134c269,-90 276,-101 68,-94l-148,6l65,-24c123,-46 132,-54 86,-75c-18,-9 -73,-5 -232,16c-240,31 -264,35 -264,45c0,4 14,13 30,20c25,10 51,9 145,-5c63,-9 119,-15 126,-13c7,2 -29,16 -81,31c-103,29 -105,30 -95,48c8,12 123,9 245,-7c58,-7 33,11 -43,31c-28,7 -65,18 -81,25c-28,10 -28,11 -10,25c29,22 49,19 189,-29zm-4285,2c-1,-13 -85,-69 -150,-99c-46,-22 -117,-84 -135,-119c-13,-24 -12,-37 5,-109c11,-45 20,-84 20,-87c0,-2 -12,-4 -26,-4c-32,0 -94,-28 -95,-44c0,-6 -13,22 -29,62c-16,41 -34,79 -39,86c-6,7 -60,35 -119,62c-146,65 -147,67 -76,94c33,12 106,33 164,47c237,56 312,76 367,98c65,26 113,31 113,13zm4115,-219c55,-10 114,-19 130,-19l30,-1l-24,-19c-13,-11 -34,-20 -47,-20c-17,0 -24,-6 -24,-18c0,-11 -9,-27 -21,-38c-31,-28 -200,-33 -249,-7c-44,23 -48,42 -14,82l27,32l-59,-3c-55,-3 -59,-5 -59,-28c0,-35 -44,-50 -79,-26c-14,9 -26,22 -26,30c0,18 32,45 66,56c41,14 232,2 349,-21zm-4115,-44c30,-16 67,-55 108,-115c55,-81 155,-188 282,-299c134,-117 190,-171 190,-182c0,-13 -50,-19 -235,-29c-413,-23 -549,-46 -785,-133c-134,-49 -277,-82 -322,-73c-44,8 -75,43 -83,95c-14,88 -25,109 -73,144c-60,44 -95,61 -155,76c-26,6 -72,21 -102,32l-55,20l52,77c150,223 199,280 285,328c95,54 144,55 268,7l100,-39l63,-197l64,-197l56,-16c32,-10 81,-17 111,-18l54,-1l39,72l39,72l-46,171c-25,94 -45,181 -43,193c2,15 12,24 33,28c39,9 124,0 155,-16zm3649,-54c86,-22 195,-46 243,-55c49,-9 100,-21 115,-27l28,-11l-25,-20c-29,-23 -74,-20 -180,12c-36,11 -78,20 -94,20c-33,0 -126,-55 -126,-75c0,-8 29,-19 78,-30c42,-9 95,-21 117,-27l40,-10l-29,-25c-19,-16 -37,-23 -50,-20c-209,50 -566,144 -566,149c0,4 12,15 26,25c25,16 31,16 138,-12c108,-27 113,-28 148,-11c34,16 86,63 77,69c-2,1 -44,12 -93,25c-49,12 -91,24 -94,27c-3,2 1,11 8,20c19,23 69,18 239,-24zm1900,-170c41,-6 79,-15 84,-20c13,-13 -89,-49 -253,-88c-80,-19 -221,-52 -315,-74c-93,-23 -217,-56 -275,-74c-58,-18 -121,-36 -140,-40c-52,-11 -395,-147 -545,-217c-151,-69 -136,-62 -255,-128c-50,-28 -173,-89 -273,-136c-215,-101 -268,-128 -323,-165c-37,-25 -96,-53 -298,-141c-136,-59 -334,-85 -399,-52c-86,44 -58,69 102,90c187,24 270,49 362,110c45,30 108,68 141,86c46,24 90,64 182,163c231,249 403,406 646,594l145,112l670,-5c410,-2 699,-8 744,-15zm-2017,-80c126,-49 155,-94 89,-138c-52,-35 -107,-46 -201,-40c-110,6 -245,50 -273,89c-19,26 -19,28 -3,53c10,15 36,35 59,46c59,28 246,22 329,-10zm-272,-192c110,-33 140,-50 140,-80c0,-22 -55,-69 -81,-69c-10,0 -31,-14 -46,-31c-26,-28 -32,-31 -73,-26c-77,10 -566,163 -577,181c-9,14 30,38 52,32c11,-2 57,-12 101,-22l82,-17l38,31c22,17 50,33 64,36c58,11 198,-5 300,-35zm-4387,-40c39,-20 68,-53 93,-105c13,-28 24,-54 24,-58c0,-6 -97,-55 -252,-124c-135,-61 -281,-155 -350,-225c-51,-51 -74,-68 -90,-65c-19,2 -23,9 -22,33c3,53 45,147 86,191c37,41 256,206 393,298c33,22 64,46 68,53c10,16 22,16 50,2zm2331,-29c13,-13 -5,-52 -55,-116c-43,-55 -69,-111 -69,-146c0,-13 14,-52 31,-88c24,-52 54,-89 149,-182c66,-65 124,-118 131,-118c6,0 36,-20 67,-44c60,-47 201,-126 225,-126c26,0 157,-71 157,-85c0,-54 -306,-298 -497,-397l-78,-40l-131,4l-131,3l-89,44c-116,58 -210,148 -245,236c-19,49 -23,79 -24,165c0,95 3,111 29,167c15,34 37,70 48,80c39,35 131,167 158,227c44,98 59,155 69,261c10,115 23,150 60,165c31,12 180,5 195,-10zm1658,-100c131,-19 228,-67 228,-114c0,-77 -135,-126 -292,-106c-168,21 -292,103 -250,166c10,16 65,43 109,53c52,12 125,13 205,1zm-1997,-20c17,-19 18,-26 7,-65c-19,-70 -66,-138 -121,-174c-88,-56 -154,-141 -232,-295c-68,-136 -73,-143 -136,-188c-86,-62 -132,-72 -277,-57c-87,8 -114,14 -126,29c-32,39 -380,326 -478,393c-117,81 -124,98 -47,109c66,9 205,50 335,98c173,63 345,92 714,120c98,8 143,15 150,25c12,16 44,21 132,24c50,1 64,-3 79,-19zm-1857,-118c3,-31 1,-33 -70,-65c-41,-19 -128,-66 -194,-105c-183,-108 -277,-142 -291,-106c-13,35 58,84 292,200c127,63 237,113 245,111c9,-1 16,-15 18,-35zm3429,-22c57,-25 93,-57 93,-82c0,-22 8,-24 190,-38c80,-6 146,-13 147,-14c2,-1 -12,-16 -30,-34l-32,-31l-149,14c-160,16 -185,14 -212,-16c-13,-15 -14,-19 -3,-23c8,-2 56,-19 107,-36c100,-35 101,-38 40,-81l-29,-21l-50,21c-27,12 -80,33 -117,46c-37,13 -114,40 -172,60c-111,39 -256,102 -249,109c18,18 125,83 192,117c79,39 85,41 154,36c41,-3 92,-14 120,-27zm-318,-274c158,-66 293,-116 315,-116c38,0 41,-18 10,-51c-36,-37 -55,-37 -145,5c-41,19 -94,39 -119,46c-25,6 -87,30 -139,53l-94,40l27,24c35,29 73,29 145,-1zm229,-399l17,-27l-96,-93c-102,-100 -123,-134 -134,-214c-10,-76 14,-146 73,-210c43,-47 61,-57 167,-98c147,-57 308,-99 615,-159c129,-26 285,-58 345,-71c61,-13 127,-27 148,-31c48,-8 58,-30 26,-55c-21,-17 -45,-19 -214,-19c-104,0 -253,-5 -330,-12c-214,-18 -420,-14 -703,16c-139,14 -274,31 -300,37c-90,21 -203,61 -208,74c-3,7 -40,33 -82,58c-87,50 -126,85 -152,137c-23,45 -63,188 -56,199c3,5 29,15 57,21c68,17 188,98 369,250c79,67 149,128 155,136c5,7 58,26 116,42c59,16 115,35 125,41c27,15 43,10 62,-22zm340,-82c45,-30 98,-64 118,-74c21,-11 40,-24 43,-29c3,-5 49,-40 101,-78c52,-37 119,-87 148,-111c29,-24 56,-43 61,-43c4,0 35,-22 68,-49c34,-26 119,-87 190,-134c70,-47 151,-107 178,-134l50,-48l-55,-3c-79,-5 -204,12 -542,74c-307,56 -462,97 -593,159c-72,35 -97,53 -152,118c-30,34 -33,44 -33,103c0,80 23,128 83,179c70,58 188,125 223,125c21,0 57,-18 112,-55zm-2117,-11c4,-2 10,-19 13,-38c26,-139 68,-195 210,-283c137,-85 199,-102 401,-114c141,-8 172,-13 183,-27c7,-9 11,-23 10,-31c-2,-7 -55,-36 -118,-64c-109,-49 -120,-51 -210,-54c-86,-2 -121,4 -355,58c-394,91 -435,106 -558,196c-137,101 -165,179 -92,257c23,24 30,26 116,26c129,0 205,15 275,56c45,26 66,32 89,28c17,-4 33,-8 36,-10zm3241,-811c39,-38 101,-104 139,-148c37,-44 125,-145 194,-225c128,-147 168,-205 203,-296l20,-50l-52,-83l-52,-82l-31,49c-17,27 -52,65 -78,83c-26,19 -81,65 -122,102c-42,38 -89,78 -105,90c-51,37 -156,177 -199,264c-46,96 -73,205 -67,280c9,106 51,111 150,16zm-443,-136c5,-13 28,-39 50,-58c59,-49 232,-258 307,-370c71,-107 188,-343 180,-364c-3,-8 -39,-30 -80,-49c-64,-29 -80,-41 -103,-81c-50,-84 -47,-81 -79,-65c-19,10 -38,38 -62,90c-108,237 -200,415 -294,570c-95,158 -106,180 -104,220l1,44l75,43c41,23 81,42 88,42c7,1 17,-10 21,-22zm-322,-252c45,-99 107,-243 138,-320c31,-77 63,-154 72,-172c14,-31 14,-33 -25,-82c-22,-27 -49,-70 -61,-95c-40,-81 -78,-89 -78,-15c0,37 -5,47 -34,71c-18,15 -39,28 -47,28c-32,0 -86,175 -153,499c-28,140 -30,156 -15,166c8,7 21,29 28,50c13,38 39,56 78,52c8,-1 48,-76 97,-182z"/>
   <path id="svg_3" d="m1010,4810c-47,-47 -12,-110 60,-110c51,0 80,24 80,65c0,24 -7,39 -22,49c-32,23 -94,20 -118,-4z"/>
   <path id="svg_4" d="m5206,4743l-30,-16l23,-18c58,-47 224,-70 258,-36c17,17 17,19 0,31c-19,14 -174,56 -204,56c-10,-1 -31,-8 -47,-17z"/>
   <path id="svg_5" d="m4900,4545c0,-35 111,-75 210,-75c36,0 71,4 79,9c21,14 6,38 -38,61c-33,16 -59,20 -146,20c-86,0 -105,-3 -105,-15z"/>
   <path id="svg_6" d="m3114,3746c-45,-18 -105,-47 -134,-66l-51,-33l47,-48c27,-27 51,-49 54,-49c8,0 234,210 238,221c8,20 -77,6 -154,-25z"/>
   <path id="svg_7" d="m3200,3634c-63,-58 -116,-109 -118,-113c-1,-4 20,-18 46,-30c47,-22 50,-23 76,-6c37,25 114,129 125,172c10,36 5,83 -8,83c-3,-1 -58,-48 -121,-106z"/>
   <path id="svg_8" d="m2845,3568c-50,-58 -95,-138 -95,-168c0,-57 13,-54 129,31l113,81l-48,49c-27,27 -51,49 -55,49c-4,0 -24,-19 -44,-42z"/>
   <path id="svg_9" d="m2928,3405l-107,-80l40,-3c22,-2 64,4 92,14c57,18 177,81 177,92c0,4 -22,18 -48,32l-47,25l-107,-80z"/>
   <path id="svg_10" d="m4614,4356c-28,-26 -29,-26 -9,-41c26,-20 107,-45 172,-52c58,-6 113,10 113,34c0,21 -126,75 -190,80c-50,5 -59,3 -86,-21z"/>
   <path id="svg_11" d="m4168,4201c-15,-5 -44,-19 -63,-31l-36,-22l89,-31l90,-30l46,33c25,18 46,36 46,40c0,34 -112,60 -172,41z"/>
   <path id="svg_12" d="m4465,3410c-17,-3 -39,-11 -49,-17c-15,-8 -10,-12 31,-28c26,-10 78,-33 114,-51l66,-33l32,33c17,17 31,35 31,39c0,12 -74,45 -115,52c-22,3 -49,8 -60,9c-11,2 -34,0 -50,-4z"/>
   <path id="svg_13" d="m4333,3315c-20,-43 -11,-96 25,-136l27,-31l78,36c42,19 86,42 98,50c21,14 20,15 -20,36c-23,11 -75,34 -117,50l-75,29l-16,-34z"/>
   <path id="svg_14" d="m4523,3159l-92,-48l52,-17c29,-10 77,-18 107,-18c55,-1 154,29 148,44c-5,14 -102,90 -113,88c-5,0 -51,-23 -102,-49z"/>
   <path fill="#ffffff" id="svg_15" d="m2597,1244c-4,-4 -7,-198 -7,-431l0,-423l96,0l96,0l-6,25c-8,32 -1,31 48,-2c35,-25 48,-28 121,-28c96,0 128,17 188,98c50,67 60,112 54,234c-6,131 -30,184 -100,227c-41,25 -58,29 -120,30c-79,0 -142,-24 -171,-66c-15,-21 -16,-9 -16,155l0,177l-59,0c-32,0 -71,3 -87,6c-16,3 -32,2 -37,-2zm362,-420c32,-23 51,-74 51,-138c0,-65 -12,-102 -47,-138c-76,-80 -192,-10 -193,117c0,105 48,175 122,175c24,0 54,-7 67,-16z"/>
   <path fill="#ffffff" id="svg_16" d="m6488,1243l-38,-4l0,-425l0,-424l90,0l90,0l0,118c0,64 4,123 9,131c7,11 25,-10 73,-85c36,-54 73,-114 83,-131l19,-33l109,0c86,0 106,3 100,13c-4,7 -52,74 -105,149c-54,74 -98,139 -98,144c0,5 41,63 90,129c49,66 90,126 90,133c0,13 -95,17 -164,5c-37,-6 -43,-13 -116,-125l-77,-118l-6,152c-4,83 -7,202 -7,265l0,113l-52,-2c-29,-1 -70,-3 -90,-5z"/>
   <path fill="#ffffff" id="svg_17" d="m864,1225c-82,-57 -26,-178 74,-161c78,12 111,98 57,151c-28,29 -97,34 -131,10z"/>
   <path fill="#ffffff" id="svg_18" d="m1177,1049c-4,-84 -7,-267 -7,-407l0,-253l95,0l95,0l0,150l0,150l26,6c53,14 89,-23 213,-220l55,-86l98,0c60,0 98,4 98,10c0,19 -163,254 -212,306l-48,51l41,18c87,40 140,145 125,248c-10,65 -42,107 -110,142c-59,30 -59,30 -261,33l-202,4l-6,-152zm332,-1c58,-20 80,-103 40,-153c-37,-47 -117,-74 -164,-56c-24,9 -25,12 -25,115l0,105l59,0c32,0 72,-5 90,-11z"/>
   <path fill="#ffffff" id="svg_19" d="m4040,795l0,-405l90,0l90,0l0,160l0,160l170,0l170,0l0,-160l0,-160l90,0l90,0l0,405l0,405l-90,0l-90,0l0,-160l0,-160l-170,0l-170,0l0,160l0,160l-90,0l-90,0l0,-405z"/>
   <path fill="#ffffff" id="svg_20" d="m2080,946c-62,-16 -112,-47 -155,-95c-50,-57 -67,-120 -60,-233c4,-63 10,-89 32,-126c55,-94 161,-142 297,-134c183,11 283,119 283,308c0,171 -104,277 -281,286c-43,2 -95,-1 -116,-6zm161,-146c37,-26 55,-73 55,-144c0,-105 -43,-165 -118,-165c-84,0 -125,43 -133,140c-9,117 38,185 127,185c26,0 56,-7 69,-16z"/>
   <path fill="#ffffff" id="svg_21" d="m3483,962c-105,-37 -157,-91 -187,-192c-32,-107 -8,-224 60,-300c56,-62 121,-85 239,-85c113,1 150,13 212,68c104,95 124,282 43,410c-60,94 -242,144 -367,99zm171,-134c40,-18 58,-55 64,-128c6,-90 -21,-154 -74,-176c-54,-22 -106,-11 -144,32c-28,32 -30,40 -30,115c0,90 15,130 58,153c33,18 92,20 126,4z"/>
   <path fill="#ffffff" id="svg_22" d="m5065,974c-11,-2 -48,-12 -82,-20l-63,-16l0,-68l0,-68l58,24c41,17 77,24 129,24c66,0 73,-2 92,-26c40,-51 43,-49 -146,-85c-135,-25 -212,-122 -183,-229c22,-80 86,-130 169,-130c59,0 93,12 133,45c38,33 48,31 48,-5l0,-30l90,0l91,0l-6,182c-4,101 -11,206 -16,235c-13,69 -56,125 -110,147c-43,18 -165,29 -204,20zm153,-349c5,-63 -75,-136 -134,-121c-30,8 -57,48 -52,77c6,42 83,80 153,76c26,-2 30,-6 33,-32z"/>
   <path fill="#ffffff" id="svg_23" d="m830,680l0,-290l90,0l90,0l0,290l0,290l-90,0l-90,0l0,-290z"/>
   <path fill="#ffffff" id="svg_24" d="m5470,953c0,-5 35,-133 77,-285l78,-278l95,0l95,0l44,173c24,94 47,176 51,180c9,10 24,-39 71,-226l32,-128l95,3l96,3l78,270c43,149 78,276 78,283c0,8 -22,12 -79,12c-54,0 -80,-4 -83,-12c-3,-7 -20,-93 -38,-190c-19,-98 -37,-178 -41,-178c-4,0 -26,80 -49,178c-23,97 -43,183 -46,190c-2,8 -30,12 -92,12l-89,0l-43,-167c-51,-203 -58,-224 -70,-203c-6,12 -80,348 -80,365c0,8 -180,5 -180,-2z"/>
  </g>
 </g>
</svg>