<svg width="782.0000000000001" height="582" xmlns="http://www.w3.org/2000/svg" preserveAspectRatio="xMidYMid meet">
 <g>
  <title>background</title>
  <rect fill="none" id="canvas_background" height="402" width="582" y="-1" x="-1"/>
 </g>
 <g>
  <title>Layer 1</title>
  <g id="svg_1" fill="#fff" transform="translate(0,582) scale(0.10000000149011612,-0.10000000149011612) ">
   <path id="svg_2" d="m6320,5649c-219,-11 -262,-18 -630,-99c-340,-75 -618,-157 -900,-265c-52,-20 -131,-49 -175,-64c-82,-29 -227,-94 -464,-207c-73,-35 -138,-64 -145,-64c-6,0 -47,-21 -91,-46c-184,-107 -461,-251 -580,-301c-102,-44 -153,-53 -372,-68c-195,-13 -215,-16 -262,-41c-35,-18 -59,-24 -76,-20c-81,20 -332,237 -558,482l-142,153l-72,16c-45,10 -73,21 -73,29c0,7 27,28 60,45c88,47 119,76 131,126c10,40 14,44 57,56c43,12 45,13 18,17c-15,2 -66,-2 -113,-8c-83,-11 -149,-27 -458,-110c-82,-22 -205,-54 -273,-70c-68,-17 -132,-35 -144,-41c-18,-10 -19,-12 -3,-29c24,-27 11,-56 -34,-74c-93,-37 -296,-261 -371,-410c-22,-43 -40,-84 -40,-91c0,-29 -145,-153 -352,-303c-40,-29 -122,-137 -137,-181c-25,-76 -8,-186 40,-250c40,-54 73,-48 85,15c8,42 15,46 144,79c141,36 211,60 305,108c109,54 232,97 280,97c22,0 63,-11 90,-24c42,-19 256,-174 358,-258c97,-80 193,-166 269,-239c84,-82 86,-85 90,-137c2,-40 -1,-57 -14,-68c-27,-26 -60,-115 -60,-166c0,-91 82,-194 228,-284c171,-106 301,-154 484,-179c63,-9 153,-24 200,-35c47,-10 119,-25 160,-33c41,-8 100,-26 130,-40c30,-14 68,-28 83,-31c16,-4 40,-18 53,-31c21,-21 24,-33 24,-94c0,-38 -13,-138 -29,-223c-40,-213 -43,-235 -36,-257c7,-25 54,-41 117,-41c52,0 179,25 213,42c50,26 85,78 52,78c-8,0 -24,11 -37,24c-20,22 -24,23 -37,10c-20,-20 -67,-18 -87,5c-15,16 -15,29 -5,117c6,54 9,151 7,214c-3,109 -2,115 17,115c18,0 21,-9 28,-80c7,-73 2,-255 -9,-315c-4,-23 -3,-23 7,3c15,38 47,35 92,-11l37,-38l100,8c55,4 117,12 138,17c44,12 87,54 96,94c9,37 -11,101 -41,128l-23,23l-28,-21c-80,-59 -152,-70 -191,-29c-19,20 -22,32 -19,92l3,69l31,3c18,2 81,-6 140,-18c178,-35 367,-59 574,-75c207,-16 299,-30 341,-51c34,-17 46,-60 104,-374c65,-357 96,-462 158,-536c31,-37 53,-80 62,-122c11,-53 47,-44 121,29c40,39 68,60 77,56c8,-3 29,-32 47,-65c17,-33 47,-76 65,-96c27,-30 39,-36 73,-36c51,0 77,21 141,115c43,63 51,70 80,68c18,0 47,-13 67,-30c132,-104 146,-100 213,50c32,70 46,83 109,93c56,9 101,38 117,77c7,18 17,86 22,152l8,120l55,-80c59,-84 94,-125 108,-125c14,0 100,115 134,180c30,58 31,62 19,114c-15,69 -48,120 -183,283c-126,153 -183,217 -352,396c-156,166 -264,262 -401,354c-160,108 -170,115 -283,195c-213,151 -452,340 -452,357c0,11 65,40 189,83c119,41 142,52 405,186c87,45 166,82 175,82c24,0 177,69 256,116c39,23 90,50 115,61c25,11 98,50 162,86c65,37 124,67 131,67c7,0 54,19 103,43c142,68 575,203 749,233c50,8 133,26 185,39c52,13 123,29 157,35c84,15 319,86 356,107c66,39 92,119 52,163c-45,50 -205,61 -935,69l-605,6l105,60c124,70 211,127 300,196c105,81 266,228 341,311c60,66 75,77 112,83c55,9 82,24 69,37c-10,10 -335,28 -482,26c-47,0 -159,-5 -250,-9zm200,-19c0,-15 -157,-60 -265,-76c-300,-43 -496,-78 -587,-105c-290,-85 -372,-111 -473,-149c-60,-23 -152,-58 -204,-76c-112,-41 -394,-171 -471,-218c-30,-18 -77,-44 -105,-58c-122,-61 -398,-274 -465,-359c-40,-50 -56,-90 -69,-176c-27,-177 -129,-299 -367,-439c-156,-92 -243,-85 -353,27c-110,111 -143,242 -82,326c16,22 41,50 57,62c69,54 198,141 208,141c6,0 36,16 66,37c29,20 97,58 149,86c53,27 121,63 151,80c93,53 113,64 175,93c33,15 101,50 152,76c51,26 97,48 104,48c6,0 48,19 93,41c44,23 143,66 220,96c76,29 161,65 189,80c28,14 87,38 132,53c44,16 123,45 175,65c225,87 547,184 795,240c194,44 483,101 555,108c77,8 220,7 220,-3zm-237,-190l55,-40l153,0c120,0 150,-3 141,-12c-7,-7 -57,-15 -125,-18c-99,-5 -109,-7 -84,-18c16,-7 36,-12 46,-12c9,0 26,-7 37,-15c16,-13 17,-16 4,-25c-23,-15 -62,-12 -183,15c-62,14 -183,37 -270,50c-88,14 -163,28 -168,31c-20,12 14,34 51,34c31,0 214,-36 285,-57c15,-4 10,5 -17,34c-44,45 -46,51 -15,63c32,13 29,14 90,-30zm-108,-134c269,-90 276,-101 68,-94l-148,6l65,-24c123,-46 132,-54 86,-75c-18,-9 -73,-5 -232,16c-240,31 -264,35 -264,45c0,4 14,13 30,20c25,10 51,9 145,-5c63,-9 119,-15 126,-13c7,2 -29,16 -81,31c-103,29 -105,30 -95,48c8,12 123,9 245,-7c58,-7 33,11 -43,31c-28,7 -65,18 -81,25c-28,10 -28,11 -10,25c29,22 49,19 189,-29zm-4285,2c-1,-13 -90,-72 -144,-96c-42,-18 -115,-80 -137,-116c-21,-34 -23,-21 37,-248c24,-92 44,-173 44,-182c0,-8 -10,-27 -23,-41c-18,-22 -28,-25 -50,-20c-35,9 -45,28 -106,209c-27,81 -56,157 -64,170c-9,13 -60,42 -124,71c-147,66 -148,68 -77,95c33,12 106,33 164,47c237,56 312,76 367,98c65,26 113,31 113,13zm4115,-219c55,-10 114,-19 130,-19l30,-1l-24,-19c-13,-11 -34,-20 -47,-20c-17,0 -24,-6 -24,-18c0,-11 -9,-27 -21,-38c-31,-28 -200,-33 -249,-7c-44,23 -48,42 -14,82l27,32l-59,-3c-55,-3 -59,-5 -59,-28c0,-35 -44,-50 -79,-26c-14,9 -26,22 -26,30c0,18 32,45 66,56c41,14 232,2 349,-21zm-4115,-44c30,-16 67,-55 108,-115c55,-81 155,-188 282,-299c134,-117 190,-171 190,-182c0,-13 -50,-19 -235,-29c-413,-23 -549,-46 -785,-133c-52,-19 -139,-45 -192,-58c-151,-36 -199,-13 -218,103c-10,66 -23,94 -49,108c-16,8 -46,-8 -170,-88c-83,-53 -201,-133 -262,-177c-61,-44 -125,-90 -142,-102c-18,-12 -52,-37 -77,-55c-68,-51 -76,-54 -53,-22c70,97 198,198 492,388l153,99l-27,15c-15,8 -58,23 -96,33c-38,10 -86,26 -108,35l-40,16l51,76c150,223 199,280 285,328c95,54 144,55 268,7l100,-39l63,-197l64,-197l56,-16c32,-10 81,-17 111,-18l54,-1l39,72l39,72l-46,171c-25,94 -45,181 -43,193c2,15 12,24 33,28c39,9 124,0 155,-16zm3649,-54c86,-22 195,-46 243,-55c49,-9 100,-21 115,-27l28,-11l-25,-20c-29,-23 -74,-20 -180,12c-36,11 -78,20 -94,20c-33,0 -126,-55 -126,-75c0,-8 29,-19 78,-30c42,-9 95,-21 117,-27l40,-10l-29,-25c-19,-16 -37,-23 -50,-20c-209,50 -566,144 -566,149c0,4 12,15 26,25c25,16 31,16 138,-12c108,-27 113,-28 148,-11c34,16 86,63 77,69c-2,1 -44,12 -93,25c-49,12 -91,24 -94,27c-3,2 1,11 8,20c19,23 69,18 239,-24zm1900,-170c41,-6 79,-15 84,-20c13,-13 -89,-49 -253,-88c-80,-19 -221,-52 -315,-74c-93,-23 -217,-56 -275,-74c-58,-18 -121,-36 -140,-40c-52,-11 -395,-147 -545,-217c-151,-69 -136,-62 -255,-128c-50,-28 -173,-89 -273,-136c-215,-101 -268,-128 -323,-165c-37,-25 -96,-53 -298,-141c-136,-59 -334,-85 -399,-52c-86,44 -58,69 102,90c187,24 270,49 362,110c45,30 108,68 141,86c46,24 90,64 182,163c231,249 403,406 646,594l145,112l670,-5c410,-2 699,-8 744,-15zm-2017,-80c126,-49 155,-94 89,-138c-52,-35 -107,-46 -201,-40c-110,6 -245,50 -273,89c-19,26 -19,28 -3,53c10,15 36,35 59,46c59,28 246,22 329,-10zm-272,-192c110,-33 140,-50 140,-80c0,-22 -55,-69 -81,-69c-10,0 -31,-14 -46,-31c-26,-28 -32,-31 -73,-26c-77,10 -566,163 -577,181c-9,14 30,38 52,32c11,-2 57,-12 101,-22l82,-17l38,31c22,17 50,33 64,36c58,11 198,-5 300,-35zm-2056,-69c13,-13 -5,-52 -55,-116c-43,-55 -69,-111 -69,-146c0,-13 14,-52 31,-88c24,-52 54,-89 149,-182c66,-65 124,-118 131,-118c6,0 36,-20 67,-44c60,-47 201,-126 225,-126c26,0 157,-71 157,-85c0,-54 -306,-298 -497,-397l-78,-40l-131,4l-131,3l-89,44c-116,58 -210,148 -245,236c-19,49 -23,79 -24,165c0,95 3,111 29,167c15,34 37,70 48,80c39,35 131,167 158,227c44,98 59,155 69,261c10,115 23,150 60,165c31,12 180,5 195,-10zm1658,-100c131,-19 228,-67 228,-114c0,-77 -135,-126 -292,-106c-168,21 -292,103 -250,166c10,16 65,43 109,53c52,12 125,13 205,1zm-2357,-46c-76,-21 -331,-54 -415,-54c-115,0 -238,-19 -322,-51c-42,-16 -81,-29 -86,-29c-5,0 -22,-7 -38,-15c-16,-8 -46,-15 -67,-17c-21,-1 -40,-5 -43,-9c-2,-4 -14,-5 -26,-1c-46,12 252,109 418,137c79,13 521,51 609,53c11,0 -2,-6 -30,-14zm290,-87c-26,-109 -37,-127 -203,-327c-16,-19 -34,-56 -40,-82c-17,-67 -14,-226 7,-350c17,-104 18,-108 75,-182c66,-86 99,-115 206,-176c41,-24 95,-56 119,-73c68,-46 164,-48 351,-7c143,31 146,32 255,103c61,40 143,104 183,144c39,40 72,69 72,66c0,-14 -52,-93 -60,-93c-6,0 -26,-23 -46,-50c-24,-33 -69,-73 -132,-116c-91,-62 -103,-67 -226,-96c-102,-25 -154,-32 -237,-32c-118,-1 -108,-5 -274,93c-145,85 -164,100 -232,184c-32,40 -63,77 -70,82c-19,16 -53,261 -53,376c1,76 5,109 15,123c8,11 15,32 15,46c0,20 19,45 77,101c130,124 150,152 163,216c14,73 42,152 48,134c2,-7 -4,-45 -13,-84zm1642,-27c57,-25 93,-57 93,-82c0,-22 8,-24 190,-38c80,-6 146,-13 147,-14c2,-1 -12,-16 -30,-34l-32,-31l-149,14c-160,16 -185,14 -212,-16c-13,-15 -14,-19 -3,-23c8,-2 56,-19 107,-36c100,-35 101,-38 40,-81l-29,-21l-50,21c-27,12 -80,33 -117,46c-37,13 -114,40 -172,60c-111,39 -256,102 -249,109c18,18 125,83 192,117c79,39 85,41 154,36c41,-3 92,-14 120,-27zm-318,-274c158,-66 293,-116 315,-116c38,0 41,-18 10,-51c-36,-37 -55,-37 -145,5c-41,19 -94,39 -119,46c-25,6 -87,30 -139,53l-94,40l27,24c35,29 73,29 145,-1zm611,-509c142,-94 290,-201 368,-264c29,-24 56,-43 61,-43c4,0 35,-22 68,-49c34,-26 119,-87 190,-134c70,-47 151,-107 178,-134l50,-48l-55,-3c-79,-5 -204,12 -542,74c-307,56 -462,97 -593,159c-72,35 -97,53 -152,118c-30,34 -33,44 -33,103c0,45 6,77 20,104c23,45 89,103 159,141c27,15 59,34 72,43c45,31 77,21 209,-67zm-446,2c-51,-40 -79,-87 -94,-158c-13,-63 -11,-78 27,-159c21,-45 38,-62 123,-122c54,-39 102,-74 105,-80c16,-26 201,-67 690,-151l340,-59l-175,4c-132,3 -210,10 -318,30c-78,14 -150,30 -160,35c-9,6 -86,23 -171,40c-173,34 -220,54 -353,149c-94,67 -123,105 -154,201c-16,50 -16,58 -1,128c21,94 43,125 109,151c72,28 77,27 32,-9zm1528,-796c39,-38 101,-104 139,-148c37,-44 125,-145 194,-225c128,-147 168,-205 203,-296l20,-50l-52,-83l-52,-82l-31,49c-17,27 -52,65 -78,83c-26,19 -81,65 -122,102c-42,38 -89,78 -105,90c-51,37 -156,177 -199,264c-46,96 -73,205 -67,280c9,106 51,111 150,16z"/>
   <path id="svg_3" d="m970,4770c-47,-47 -12,-110 60,-110c51,0 80,24 80,65c0,24 -7,39 -22,49c-32,23 -94,20 -118,-4z"/>
   <path id="svg_4" d="m5166,4703l-30,-16l23,-18c58,-47 224,-70 258,-36c17,17 17,19 0,31c-19,14 -174,56 -204,56c-10,-1 -31,-8 -47,-17z"/>
   <path id="svg_5" d="m4860,4505c0,-35 111,-75 210,-75c36,0 71,4 79,9c21,14 6,38 -38,61c-33,16 -59,20 -146,20c-86,0 -105,-3 -105,-15z"/>
   <path id="svg_6" d="m3081,3710c-71,-28 -181,-89 -181,-100c0,-3 25,-15 56,-27l56,-22l102,59c56,32 114,64 129,71c34,15 34,23 2,37c-40,18 -83,13 -164,-18z"/>
   <path id="svg_7" d="m3195,3608c-49,-27 -100,-56 -113,-64l-22,-15l45,-39c26,-22 52,-40 59,-40c15,0 75,70 104,121c22,38 36,90 25,88c-5,-1 -48,-23 -98,-51z"/>
   <path id="svg_8" d="m2805,3528c-44,-52 -95,-137 -95,-160c0,-12 35,7 124,70l124,87l-46,22c-26,12 -52,22 -59,22c-6,1 -28,-18 -48,-41z"/>
   <path id="svg_9" d="m2867,3402c-124,-87 -136,-98 -120,-110c27,-21 137,-10 208,19c58,24 166,88 165,99c-1,6 -95,84 -107,87c-4,1 -70,-41 -146,-95z"/>
   <path id="svg_10" d="m4574,4316c-28,-26 -29,-26 -9,-41c26,-20 107,-45 172,-52c58,-6 113,10 113,34c0,21 -126,75 -190,80c-50,5 -59,3 -86,-21z"/>
   <path id="svg_11" d="m4128,4161c-15,-5 -44,-19 -63,-31l-36,-22l89,-31l90,-30l46,33c25,18 46,36 46,40c0,34 -112,60 -172,41z"/>
   <path id="svg_12" d="m4375,3353c-41,-22 -65,-43 -81,-75l-15,-28l116,0l116,0l-33,60c-36,65 -50,71 -103,43z"/>
   <path id="svg_13" d="m4537,3307l38,-65l78,-12c43,-7 80,-10 83,-7c3,3 -10,23 -30,44c-40,45 -114,88 -169,98l-37,7l37,-65z"/>
   <path id="svg_14" d="m4290,3183c0,-9 22,-38 49,-64c47,-45 94,-67 180,-84l34,-7l-7,72c-4,40 -10,78 -13,86c-4,11 -31,14 -124,14c-105,0 -119,-2 -119,-17z"/>
   <path id="svg_15" d="m4594,3120c3,-41 9,-76 11,-78c3,-3 25,3 50,12c48,19 101,76 92,99c-3,8 -28,17 -59,21c-29,4 -64,10 -77,13l-24,6l7,-73z"/>
   <path fill="#ffffff" id="svg_16" d="m2557,1204c-4,-4 -7,-198 -7,-431l0,-423l96,0l96,0l-6,25c-8,32 -1,31 48,-2c35,-25 48,-28 121,-28c96,0 128,17 188,98c50,67 60,112 54,234c-6,131 -30,184 -100,227c-41,25 -58,29 -120,30c-79,0 -142,-24 -171,-66c-15,-21 -16,-9 -16,155l0,177l-59,0c-32,0 -71,3 -87,6c-16,3 -32,2 -37,-2zm362,-420c32,-23 51,-74 51,-138c0,-65 -12,-102 -47,-138c-76,-80 -192,-10 -193,117c0,105 48,175 122,175c24,0 54,-7 67,-16z"/>
   <path fill="#ffffff" id="svg_17" d="m6448,1203l-38,-4l0,-425l0,-424l90,0l90,0l0,118c0,64 4,123 9,131c7,11 25,-10 73,-85c36,-54 73,-114 83,-131l19,-33l109,0c86,0 106,3 100,13c-4,7 -52,74 -105,149c-54,74 -98,139 -98,144c0,5 41,63 90,129c49,66 90,126 90,133c0,13 -95,17 -164,5c-37,-6 -43,-13 -116,-125l-77,-118l-6,152c-4,83 -7,202 -7,265l0,113l-52,-2c-29,-1 -70,-3 -90,-5z"/>
   <path fill="#ffffff" id="svg_18" d="m824,1185c-82,-57 -26,-178 74,-161c78,12 111,98 57,151c-28,29 -97,34 -131,10z"/>
   <path fill="#ffffff" id="svg_19" d="m1140,1000c-4,-84 -7,-267 -7,-407l0,-253l95,0l95,0l0,150l0,150l26,6c53,14 89,-23 213,-220l55,-86l98,0c60,0 98,4 98,10c0,19 -163,254 -212,306l-48,51l41,18c87,40 140,145 125,248c-10,65 -42,107 -110,142c-59,30 -59,30 -261,33l-202,4l-6,-152zm332,-1c58,-20 80,-103 40,-153c-37,-47 -117,-74 -164,-56c-24,9 -25,12 -25,115l0,105l59,0c32,0 72,-5 90,-11z"/>
   <path fill="#ffffff" id="svg_20" d="m4000,755l0,-405l90,0l90,0l0,160l0,160l170,0l170,0l0,-160l0,-160l90,0l90,0l0,405l0,405l-90,0l-90,0l0,-160l0,-160l-170,0l-170,0l0,160l0,160l-90,0l-90,0l0,-405z"/>
   <path fill="#ffffff" id="svg_21" d="m2037,930c-62,-16 -112,-47 -155,-95c-50,-57 -67,-120 -60,-233c4,-63 10,-89 32,-126c55,-94 161,-142 297,-134c183,11 283,119 283,308c0,171 -104,277 -281,286c-43,2 -95,-1 -116,-6zm161,-146c37,-26 55,-73 55,-144c0,-105 -43,-165 -118,-165c-84,0 -125,43 -133,140c-9,117 38,185 127,185c26,0 56,-7 69,-16z"/>
   <path fill="#ffffff" id="svg_22" d="m3442,922c-105,-37 -157,-91 -187,-192c-32,-107 -8,-224 60,-300c56,-62 121,-85 239,-85c113,1 150,13 212,68c104,95 124,282 43,410c-60,94 -242,144 -367,99zm171,-134c40,-18 58,-55 64,-128c6,-90 -21,-154 -74,-176c-54,-22 -106,-11 -144,32c-28,32 -30,40 -30,115c0,90 15,130 58,153c33,18 92,20 126,4z"/>
   <path fill="#ffffff" id="svg_23" d="m5025,934c-11,-2 -48,-12 -82,-20l-63,-16l0,-68l0,-68l58,24c41,17 77,24 129,24c66,0 73,-2 92,-26c40,-51 43,-49 -146,-85c-135,-25 -212,-122 -183,-229c22,-80 86,-130 169,-130c59,0 93,12 133,45c38,33 48,31 48,-5l0,-30l90,0l91,0l-6,182c-4,101 -11,206 -16,235c-13,69 -56,125 -110,147c-43,18 -165,29 -204,20zm153,-349c5,-63 -75,-136 -134,-121c-30,8 -57,48 -52,77c6,42 83,80 153,76c26,-2 30,-6 33,-32z"/>
   <path fill="#ffffff" id="svg_24" d="m790,640l0,-290l90,0l90,0l0,290l0,290l-90,0l-90,0l0,-290z"/>
   <path fill="#ffffff" id="svg_25" d="m5430,913c0,-5 35,-133 77,-285l78,-278l95,0l95,0l44,173c24,94 47,176 51,180c9,10 24,-39 71,-226l32,-128l95,3l96,3l78,270c43,149 78,276 78,283c0,8 -22,12 -79,12c-54,0 -80,-4 -83,-12c-3,-7 -20,-93 -38,-190c-19,-98 -37,-178 -41,-178c-4,0 -26,80 -49,178c-23,97 -43,183 -46,190c-2,8 -30,12 -92,12l-89,0l-43,-167c-51,-203 -58,-224 -70,-203c-6,12 -80,348 -80,365c0,8 -180,5 -180,-2z"/>
  </g>
  <path transform="rotate(-132 104.94647216796875,113.23703002929689) " stroke="null" id="svg_27" d="m105.172833,106.342044c-2.719784,0 -4.937933,2.160422 -4.937933,4.808203s2.21815,4.808203 4.937933,4.808203c2.719784,0 4.937933,-2.160422 4.937933,-4.808203s-2.21815,-4.808203 -4.937933,-4.808203zm12.524798,4.78542c-0.348593,-1.801838 -1.008937,-3.023205 -1.631492,-3.957307c0.047235,0.127783 0.085023,0.256556 0.130368,0.384339c-2.210592,-6.295041 -11.056739,-9.707537 -17.889735,-5.378768c-0.052903,0.267453 -0.068963,0.532924 -0.068963,0.796414c0,-0.050519 -0.005668,-0.097075 -0.003779,-0.148585c-1.646608,-0.132736 -3.640864,2.041555 -5.414061,6.025607c-0.900297,2.255517 -1.226217,4.724995 -0.391105,7.620417c0.487464,1.689904 1.254558,3.423393 2.360799,4.76858c3.279045,3.989005 8.302001,5.616504 11.226784,4.789382c0.003779,0.000991 0.008502,0.002972 0.013226,0.003962c5.638899,-0.123821 9.913655,-4.188109 11.454456,-9.478717c0.554537,-1.909809 0.590436,-3.472921 0.213502,-5.425325zm-22.192832,9.463858c-0.90691,-1.101508 -1.657944,-2.625988 -2.171859,-4.409996c-0.692463,-2.397167 -0.578155,-4.606127 0.35804,-6.948814c0.950366,-2.132687 1.878058,-3.534336 2.676328,-4.377307c0.141705,0.734999 0.492187,1.61264 1.051448,2.624007c0.205944,0.375424 0.433616,0.694386 0.653731,1.002452c0.169101,0.234764 0.336312,0.469528 0.48463,0.722122c0.117142,0.200094 0.225783,0.440801 0.334423,0.730046c-0.225783,2.728016 0.84267,5.089523 2.973907,6.615984l-2.4052,2.228771l-0.190829,0.169387c-0.196497,0.169387 -0.42228,0.369481 -0.614998,0.583443c-1.284788,1.430376 -0.236174,2.80429 0.270183,3.464997l0.064239,0.086179c0.223893,0.294198 0.48463,0.61415 0.769928,0.92915c-1.495456,-0.760754 -2.995636,-1.889998 -4.253973,-3.420421zm21.077144,-4.328769c-1.511516,5.182636 -5.608669,8.617916 -10.457801,8.775416c-2.347573,-0.577499 -4.12077,-1.763206 -5.27708,-3.52344c0.003779,-0.003962 0.009447,-0.007925 0.01417,-0.012877l4.670584,-3.799808c2.102896,-0.12283 3.640864,-0.879622 4.578948,-2.256507c1.15442,-1.398678 1.692898,-2.996459 1.599373,-4.815137c1.716515,0.373443 3.20158,0.89448 4.586506,1.865234l0.109585,0.077264l0.126589,0.042594c0.147373,0.048538 0.293801,0.075283 0.433616,0.080236c0.102972,1.228301 -0.019839,2.310988 -0.384492,3.567025zm0.240898,-4.589288c-1.843105,-1.293678 -3.837361,-1.849385 -6.229335,-2.263441c0.501634,2.335752 -0.079355,4.033581 -1.252669,5.459995c-0.833223,1.223348 -2.250269,1.80481 -4.151,1.857309l-4.931321,4.01377c-0.469515,0.405141 -0.558316,0.811273 -0.266405,1.217404c0.802048,1.264952 1.822321,2.181224 2.949345,2.850846c-0.012281,0 -0.024562,0.001981 -0.036843,0.002972c-0.000945,-0.000991 -0.003779,-0.001981 -0.005668,-0.003962c-0.018894,0.002972 -0.038733,0.003962 -0.058571,0.004953c-0.075576,0.000991 -0.151152,-0.000991 -0.225783,-0.009906c-0.147373,-0.020802 -0.296635,-0.063396 -0.433616,-0.116887c-0.848338,-0.329858 -1.785478,-1.339244 -2.453379,-2.217875c-0.548869,-0.723112 -1.139305,-1.41948 -0.388271,-2.253535c0.243732,-0.270424 0.549814,-0.50915 0.745366,-0.691414l2.381582,-2.207969c0.162488,-0.135707 0.330644,-0.274387 0.505413,-0.419009c0.050069,-0.041604 0.101083,-0.083207 0.153041,-0.125802c0.532809,-0.43783 0.456289,-0.316981 -0.102027,-0.635943c-2.285223,-1.307546 -3.473652,-3.579902 -3.168515,-6.32872c-0.14076,-0.406132 -0.299469,-0.784528 -0.489353,-1.113395c-0.342925,-0.594339 -0.787878,-1.091603 -1.127969,-1.706744c-0.850228,-1.541319 -1.744856,-3.865185 0.012281,-3.64726c-0.004723,-0.0525 -0.001889,-0.108962 -0.004723,-0.162453c0.088802,1.982121 1.441608,3.78693 1.645663,4.841882c0.073686,0.378396 0.277741,0.698348 0.578155,0.277358c2.397642,-3.362968 5.733369,-3.024195 7.86744,-1.299621c0.418501,0.336792 0.646173,0.747877 1.024052,1.099527c0.145483,0.136698 0.309861,0.256556 0.505413,0.347688c0.70191,0.328868 1.707068,0.309056 2.462826,0.429905c1.29518,0.206038 2.557296,0.459622 3.751393,0.804339c0.236174,0.029717 0.400552,-0.003962 0.492187,-0.100047c0.199331,-0.206038 -0.001889,-0.878631 -0.114308,-1.251084c0.261681,0.797405 0.506358,1.593819 0.730251,2.392215c0.17099,0.622075 0.130368,1.124291 -0.364653,0.954905z" stroke-opacity="null" stroke-width="NaN" fill="#000000"/>
 </g>
</svg>