<svg width="87" height="14.000000000000002" xmlns="http://www.w3.org/2000/svg">
 <!-- Created with Method Draw - http://github.com/duopixel/Method-Draw/ -->

 <g>
  <title>background</title>
  <rect fill="none" id="canvas_background" height="16" width="89" y="-1" x="-1"/>
 </g>
 <g>
  <title>Layer 1</title>
  <metadata transform="matrix(0.08450513186810671,0,0,0.08450513186810671,0,0) ">Created by potrace 1.16, written by Peter Selinger 2001-2019</metadata>
  <g stroke="null" id="svg_18">
   <g stroke="null" transform="matrix(0.02887037570756031,0,0,0.02878296085122676,6.5615805294429235,4.6199286468277805) " id="svg_16">
    <title stroke="null" transform="translate(6.35551118850708,-50.998504638671875) translate(-12.829191207885742,44.519039154052734) translate(6.414595603942871,11.129759788513184) translate(-19.976930618286133,25.996000289916992) translate(2.842170943040401e-14,-17.33066749572754) translate(-439.4372863769531,7.745873928070068) translate(-336.040283203125,-116.1881103515625) translate(534.2179565429688,54.22111892700195) translate(-1240.76416015625,-30.983495712280273) translate(7.575784206390381,-7.355628967285156) translate(-719.6995239257812,22.0668888092041) translate(1909.0975341796875,-220.6688690185547) translate(75.08927917480469,25.191877365112305) translate(5.698726654052734,115.95549011230469) translate(0,-3.3810324668884277) translate(0,3.6979942321777344) translate(-3.6979942321777344,-11.093982696533203) translate(-19.722597122192383,-315.5615539550781) translate(-4342.931640625,-2993.901123046875) translate(4389.4404296875,0) translate(0,3332.080322265625) ">background</title>
    <rect stroke="null" x="-202.20979" y="-125.8586" width="690" height="438" id="svg_14" fill="none"/>
   </g>
   <g stroke="null" transform="matrix(0.02887037570756031,0,0,0.02878296085122676,6.5615805294429235,4.6199286468277805) " id="svg_17">
    <title stroke="null" transform="translate(6.35551118850708,-50.998504638671875) translate(-12.829191207885742,44.519039154052734) translate(6.414595603942871,11.129759788513184) translate(-19.976930618286133,25.996000289916992) translate(2.842170943040401e-14,-17.33066749572754) translate(-439.4372863769531,7.745873928070068) translate(-336.040283203125,-116.1881103515625) translate(534.2179565429688,54.22111892700195) translate(-1240.76416015625,-30.983495712280273) translate(7.575784206390381,-7.355628967285156) translate(-719.6995239257812,22.0668888092041) translate(1909.0975341796875,-220.6688690185547) translate(75.08927917480469,25.191877365112305) translate(5.698726654052734,115.95549011230469) translate(0,-3.3810324668884277) translate(0,3.6979942321777344) translate(-3.6979942321777344,-11.093982696533203) translate(-19.722597122192383,-315.5615539550781) translate(-4342.931640625,-2993.901123046875) translate(4389.4404296875,0) translate(0,3332.080322265625) ">Layer 1</title>
    <g stroke="null" transform="translate(0,556) scale(0.10000000149011612,-0.10000000149011612) " fill="#999999" id="svg_9">
     <path stroke="null" d="m3687.23283,6680.58867c-211.93703,-15 -579.82771,-81 -829.75345,-149c-505.84969,-138 -1080.67889,-382 -1613.52056,-685c-212.93673,-121 -354.89455,-188 -420.87494,-200c-29.99109,-5 -123.96317,-14 -207.93821,-19c-138.95871,-9 -159.95247,-13 -220.93435,-41c-78.97653,-37 -89.97327,-35 -176.94742,36c-113.96614,91 -401.88059,384 -499.85147,508c-25.99228,33 -39.98812,41 -88.97356,51c-31.99049,6 -59.98218,16 -61.98158,21c-1.99941,5 26.99198,29 62.98129,54c77.97683,53 103.96911,83 103.96911,120c0,23 6.99792,31 36.98901,43l37.98871,16l-50.98485,0c-58.98247,1 -174.94802,-28 -546.83751,-135c-288.91415,-83 -303.9097,-89 -286.91475,-109c18.99436,-23 0.9997,-55 -45.98634,-77c-86.97416,-40 -245.92693,-238 -333.90079,-413l-54.98366,-110l-118.96465,-96c-232.93079,-191 -289.91386,-265 -289.91386,-384c0,-98 61.98158,-206 103.96911,-180c4.99851,3 11.99644,21 15.99525,40c8.99733,49 30.99079,64 121.96376,80c78.97653,13 170.9492,47 327.90257,120c169.9495,79 197.94118,86 256.92366,62c101.9697,-43 587.82533,-462 645.80811,-558c27.99168,-46 26.99198,-59 -13.99584,-142c-73.97802,-151 -29.99109,-266 149.95544,-387c153.95425,-104 300.91059,-162 459.86336,-180c117.96495,-14 260.92247,-46 399.88118,-90c121.96376,-39 164.95099,-75 164.95099,-137c0,-22 -12.99614,-121 -29.99109,-221c-34.9896,-215 -37.98871,-268 -11.99644,-276c76.97713,-21 185.94475,-10 260.92247,27c50.98485,26 71.97861,53 64.98069,83c-2.99911,12 -1.99941,24 2.99911,27c3.99881,3 52.98426,10 107.96792,17c104.96881,12 125.96257,19 162.95158,53c40.98782,38 20.99376,177 -25.99228,177c-8.99733,0 -38.98842,-14 -66.9801,-30c-58.98247,-35 -103.96911,-38 -129.96138,-10c-23.99287,27 -31.99049,127 -12.99614,153c13.99584,18 16.99495,18 108.96762,-1c94.97178,-21 188.94386,-34 528.84286,-72c226.93257,-26 330.90168,-46 347.89663,-68c18.99436,-25 28.99139,-69 67.9798,-292c64.98069,-374 85.97445,-455 145.95663,-543c21.99346,-32 45.98634,-78 54.98366,-103c19.99406,-59 37.98871,-57 110.96703,11c32.9902,30 61.98158,55 64.98069,55c3.99881,0 24.99257,-31 46.98604,-69c94.97178,-160 147.95604,-162 245.92693,-9c27.99168,44 49.98515,68 61.98158,68c9.99703,0 42.98723,-17 72.97832,-39c79.97624,-56 95.97148,-63 117.96495,-51c19.99406,10 80.97594,122 80.97594,147c0,16 49.98515,40 101.9697,48c20.99376,3 49.98515,16 63.98099,28c23.99287,21 25.99228,30 33.9899,150c3.99881,70 8.99733,129 11.99644,132c1.99941,3 27.99168,-31 55.98337,-74c57.98277,-88 74.97772,-106 95.97148,-98c19.99406,8 113.96614,152 124.96287,194c14.99554,53 -3.99881,124 -52.98426,197c-104.96881,156 -462.86247,576 -596.82266,700c-34.9896,33 -160.95217,131 -278.91712,219c-229.93168,172 -488.85474,378 -529.84256,422c-23.99287,26 -23.99287,27 -5.99822,40c9.99703,8 54.98366,26 99.97029,41c108.96762,37 174.94802,67 345.89722,161c79.97624,43 164.95099,87 189.94356,97c94.97178,38 181.94594,82 390.88385,197c372.8892,207 567.83128,282 983.7077,384c424.87375,103 509.8485,126 577.8283,157c77.97683,36 106.96822,67 106.96822,113c0,45 -26.99198,74 -76.97713,86c-64.98069,14 -389.88415,29 -647.80751,29c-125.96257,0 -327.90257,3 -447.86692,7l-217.93524,6l52.98426,30c117.96495,66 198.94089,120 283.91564,188c133.9602,107 267.92039,233 325.90316,307c63.98099,81 63.98099,82 108.96762,82c34.9896,0 79.97624,23 67.9798,35c-18.99436,18 -424.87375,39 -573.82949,29l-0.00004,0zm89.97327,-33c9.99703,-17 -35.98931,-28 -343.89781,-82c-256.92366,-44 -425.87346,-84 -605.81999,-144c-568.83098,-190 -1045.68929,-449 -1276.62067,-693c-72.97832,-78 -94.97178,-119 -108.96762,-201c-24.99257,-157 -86.97416,-247 -253.92455,-371c-104.96881,-77 -187.94415,-121 -231.93108,-122c-79.97624,-1 -165.95069,62 -227.93227,166c-31.99049,54 -34.9896,67 -34.9896,135l0,75l57.98277,56c116.96525,114 397.88177,282 841.74988,504c687.79563,343 1163.65423,518 1710.49175,630c239.92871,49 458.86365,71 473.8592,47l-0.00001,0zm-4123.77467,-295c0,-8 -41.98752,-42 -91.97267,-76c-185.94475,-126 -179.94653,-110 -120.96406,-350l47.98574,-190l-26.99198,-27c-22.99317,-23 -30.99079,-25 -50.98485,-16c-25.99228,12 -40.98782,48 -101.9697,246l-35.98931,118l-114.96584,57c-62.98129,31 -113.96614,59 -113.96614,63c0,11 78.97653,37 269.9198,88c101.9697,27 216.93554,61 254.92425,75c82.97534,30 84.97475,30 84.97475,12l0.00001,0zm9.99703,-251c17.99465,-9 52.98426,-51 85.97445,-103c42.98723,-65 103.96911,-133 241.92811,-269c219.93465,-216 223.93346,-197 -44.98663,-213c-330.90168,-20 -445.86752,-43 -743.77899,-149c-63.98099,-23 -141.95782,-44 -174.94802,-47c-82.97534,-9 -101.9697,8 -119.96435,106c-8.99733,48 -21.99346,82 -36.98901,98c-26.99198,30 -129.96138,82 -218.93495,111c-36.98901,13 -69.97921,27 -72.97832,31c-6.99792,12 149.95544,249 209.93762,317c86.97416,98 175.94772,118 320.90465,69l79.97624,-26l57.98277,-183c30.99079,-100 59.98218,-185 63.98099,-189c4.99851,-5 43.98693,-19 86.97416,-32l79.97624,-24l21.99346,25c11.99644,15 32.9902,49 45.98634,77l24.99257,51l-37.98871,155c-39.98812,157 -44.98663,191 -32.9902,203c12.99614,13 133.9602,7 162.95158,-8zm4981.5198,-210c74.97772,-20 1.99941,-50 -335.90019,-134c-526.84345,-133 -749.77721,-217 -1176.65037,-445c-101.9697,-54 -229.93168,-121 -284.91534,-148c-54.98366,-28 -187.94415,-99 -295.91207,-159c-208.93792,-117 -307.90851,-158 -438.86959,-185c-119.96435,-24 -209.93762,-4 -209.93762,46c0,26 6.99792,29 101.9697,41c171.94891,21 251.92514,39 287.91445,65c18.99436,14 66.9801,46 104.96881,71c126.96227,82 165.95069,117 279.91683,248c140.95812,162 305.9091,323 499.85147,487l149.95544,127l644.8084,-3c354.89455,-2 656.80484,-7 672.80008,-11zm-3947.82695,-314c15.99525,-3 30.99079,-11 32.9902,-17c1.99941,-5 -19.99406,-48 -48.98544,-95c-45.98634,-74 -51.98455,-90 -52.98426,-139c0,-96 69.97921,-196 235.9299,-335c113.96614,-95 176.94742,-136 316.90583,-202c84.97475,-40 111.96673,-57 111.96673,-72c0,-46 -306.90881,-299 -445.86752,-368c-72.97832,-35 -83.97505,-38 -163.95128,-38c-93.97208,1 -162.95158,19 -246.92663,67c-65.98039,37 -142.95752,114 -173.94831,176c-21.99346,42 -23.99287,60 -23.99287,172c0,143 1.99941,149 99.97029,285c109.96732,154 148.95574,255 162.95158,422c8.99733,104 18.99436,128 56.98307,143c22.99317,10 96.97119,10 138.95871,1zm1380.58977,-976c49.98515,-34 191.94297,-140 316.90583,-236c123.96317,-96 270.9195,-207 324.90346,-246c112.96643,-84 172.94861,-137 172.94861,-154c0,-28 -317.90554,15 -642.809,87c-301.91029,67 -401.88059,104 -488.85474,183c-62.98129,56 -77.97683,87 -77.97683,159c0,97 46.98604,155 197.94118,243c44.98663,26 72.97832,37 86.97416,33c10.99673,-4 60.98188,-34 109.96732,-69l0.00001,0zm918.72701,-704c46.98604,-30 378.88742,-418 468.86068,-549c18.99436,-29 44.98663,-78 56.98307,-110c24.99257,-65 22.99317,-79 -29.99109,-160l-33.9899,-51l-51.98455,57c-27.99168,31 -105.96851,106 -172.94861,166c-66.9801,60 -139.95841,134 -161.95188,164c-46.98604,62 -120.96406,215 -137.95901,284c-15.99525,69 -13.99584,169 4.99851,196c17.99465,27 18.99436,27 57.98277,3l0.00001,0z" id="svg_13"/>
     <path stroke="null" d="m-1162.3262,5885.58864l-24.99257,-11l27.99168,-4c32.9902,-4 32.9902,-5 1.99941,-36c-28.99139,-29 -30.99079,-52 -8.99733,-84c22.99317,-34 88.97356,-28 116.96525,10c16.99495,23 18.99436,31 8.99733,53c-6.99792,14 -26.99198,32 -44.98663,40c-24.99257,11 -26.99198,14 -10.99673,15c11.99644,0 32.9902,-9 47.98574,-21c27.99168,-22 33.9899,-58 15.99525,-105c-15.99525,-42 -3.99881,-40 24.99257,5c34.9896,56 40.98782,95 20.99376,126c-14.99554,23 -22.99317,25 -83.97505,24c-36.98901,0 -77.97683,-5 -91.97267,-12l-0.00001,0z" id="svg_12"/>
     <path stroke="null" d="m754.10435,4858.58864c-99.97029,-31 -241.92811,-131 -306.90881,-214c-93.97208,-123 -80.97594,-209 31.99049,-208c124.96287,2 331.90138,143 396.88207,270c26.99198,53 27.99168,113 1.99941,136c-22.99317,21 -84.97475,29 -123.96317,16l0.00001,0z" id="svg_11"/>
     <path stroke="null" d="m1864.77433,4498.58864c-49.98515,-27 -77.97683,-66 -77.97683,-107c0,-132 205.93881,-229 339.899,-160c88.97356,44 100.97,122 32.9902,198c-51.98455,58 -104.96881,81 -187.94415,86c-55.98337,3 -76.97713,-1 -106.96822,-17z" id="svg_10"/>
    </g>
   </g>
  </g>
  <metadata transform="matrix(0.003936960883264062,0,0,0.003936960883264062,0,0) ">Created by potrace 1.16, written by Peter Selinger 2001-2019</metadata>
  <g stroke="null" id="svg_48">
   <g stroke="null" transform="matrix(0.09788248617628985,0,0,0.1220537382130378,-2589.969942562748,-592.3029833808058) " id="svg_46">
    <title stroke="null" transform="translate(3.749107837677002,-13.529892921447754) translate(-3.637978807091713e-12,-1.323876142501831) translate(-3.637978807091713e-12,3.9716286659240723) translate(-3.637978807091713e-12,-1.323876142501831) translate(-18.084957122802734,0) translate(-11.5086088180542,-7.9432573318481445) translate(-23.04075813293457,6.1844072341918945) translate(-122.88404846191406,-10.307345390319824) translate(320.01055908203125,-63.905540466308594) translate(-99.84329223632812,-30.922039031982422) translate(-161.2853240966797,18.55322265625) translate(-10.240338325500488,6.184407711029053) translate(-13.095366477966309,1.930957317352295) translate(2.6190731525421143,0) translate(-96.90570831298828,-4.5880961418151855) translate(-28.80980682373047,-16.05833625793457) translate(-132.1721649169922,16.685848236083984) translate(-555.1224975585938,-79.8536148071289) translate(27600.33203125,0) translate(0,5020.060546875) ">background</title>
    <rect stroke="null" x="26652.7179" y="4842.81514" width="682" height="122" id="svg_44" fill="none"/>
   </g>
   <g stroke="null" transform="matrix(0.09788248617628985,0,0,0.1220537382130378,-2589.969942562748,-592.3029833808058) " id="svg_47">
    <title stroke="null" transform="translate(3.749107837677002,-13.529892921447754) translate(-3.637978807091713e-12,-1.323876142501831) translate(-3.637978807091713e-12,3.9716286659240723) translate(-3.637978807091713e-12,-1.323876142501831) translate(-18.084957122802734,0) translate(-11.5086088180542,-7.9432573318481445) translate(-23.04075813293457,6.1844072341918945) translate(-122.88404846191406,-10.307345390319824) translate(320.01055908203125,-63.905540466308594) translate(-99.84329223632812,-30.922039031982422) translate(-161.2853240966797,18.55322265625) translate(-10.240338325500488,6.184407711029053) translate(-13.095366477966309,1.930957317352295) translate(2.6190731525421143,0) translate(-96.90570831298828,-4.5880961418151855) translate(-28.80980682373047,-16.05833625793457) translate(-132.1721649169922,16.685848236083984) translate(-555.1224975585938,-79.8536148071289) translate(27600.33203125,0) translate(0,5020.060546875) ">Layer 1</title>
    <g stroke="null" transform="translate(0,556) scale(0.10000000149011612,-0.10000000149011612) " fill="#999999" id="svg_33">
     <path stroke="null" d="m272706.17096,-43004.15144c-23,-25 -24,-29 -21,-172c2,-81 -2,-292 -8,-469c-10,-284 -10,-325 4,-351c17,-34 33,-42 82,-42c25,0 42,8 59,26c22,23 25,36 25,99c0,110 7,133 51,162c21,14 42,22 47,19c10,-6 136,-172 189,-249c38,-55 68,-70 114,-57c48,14 69,38 69,79c0,31 -18,73 -40,91c-3,3 -28,34 -54,70c-27,36 -71,92 -97,126l-48,61l109,108c123,121 129,136 78,184c-25,23 -42,31 -71,31c-34,0 -48,-10 -170,-126c-72,-69 -140,-130 -150,-135c-16,-9 -17,1 -11,178c9,242 0,337 -32,369c-33,34 -92,33 -125,-2z" id="svg_43"/>
     <path stroke="null" d="m268559.17096,-43003.15144c-60,-26 -62,-45 -62,-540c0,-430 1,-446 20,-465c26,-26 66,-35 97,-21c20,9 42,8 105,-6c92,-19 175,-11 253,27c62,30 133,104 164,170c23,48 26,68 26,160c0,93 -3,112 -26,161c-55,117 -152,187 -271,196c-59,5 -108,-6 -191,-42c-17,-7 -18,2 -16,157c1,103 -3,172 -9,185c-14,26 -52,33 -90,18zm359,-508c104,-69 104,-265 0,-334c-59,-39 -139,-41 -233,-4l-28,11l0,138l0,138l33,19c105,62 169,71 228,32z" id="svg_42"/>
     <path stroke="null" d="m270060.17096,-43032.15144l-28,-24l-7,-334c-4,-183 -11,-387 -17,-452c-8,-97 -7,-125 4,-153c24,-56 101,-68 144,-21c16,16 20,44 26,163c4,78 10,147 14,153c8,14 312,71 419,79l82,6l1,-144c1,-180 9,-245 35,-264c50,-37 117,-24 142,28c11,23 12,58 4,180c-9,141 6,583 24,713c5,36 2,45 -22,68c-80,73 -157,-10 -175,-188c-4,-50 -9,-119 -9,-153l0,-62l-47,-6c-96,-11 -251,-35 -351,-54l-104,-19l8,227l7,226l-28,28c-36,35 -83,36 -122,3z" id="svg_41"/>
     <path stroke="null" d="m266982.17096,-43051.15144l-35,-35l-2,-358c-5,-598 -7,-542 25,-570c38,-32 90,-32 122,1c29,28 29,27 25,164l-2,104l28,-7c84,-20 242,-110 354,-202c90,-73 107,-80 153,-60c44,18 61,48 53,91c-8,41 -92,121 -201,193l-75,49l42,19c264,119 244,393 -40,559c-87,51 -163,71 -309,81l-102,7l-36,-36zm328,-190c114,-52 187,-150 152,-204c-39,-59 -161,-102 -287,-103l-58,0l0,171l0,172l68,-5c44,-3 89,-14 125,-31z" id="svg_40"/>
     <path stroke="null" d="m266691.17096,-43049.15144c-71,-20 -95,-108 -41,-155c41,-35 75,-40 116,-18c109,58 45,204 -75,173z" id="svg_39"/>
     <path stroke="null" d="m266641.17096,-43361.15144c-25,-22 -27,-29 -35,-153c-11,-183 -11,-412 2,-457c18,-66 100,-86 149,-37c18,18 20,34 20,163c0,78 3,212 7,298l6,157l-26,26c-34,34 -85,35 -123,3z" id="svg_38"/>
     <path stroke="null" d="m271276.17096,-43352.15144c-108,-29 -203,-110 -252,-214c-28,-60 -32,-77 -32,-157c1,-101 13,-152 51,-211c71,-109 231,-147 377,-89l68,28l22,-21c52,-48 124,-42 149,13c10,22 7,36 -23,103c-32,72 -34,85 -37,204c-3,89 0,141 10,175c8,28 11,58 7,70c-12,34 -67,72 -136,93c-73,22 -136,25 -204,6zm146,-276c1,-69 5,-146 10,-172c7,-46 6,-48 -26,-67c-44,-27 -129,-37 -165,-20c-15,8 -37,30 -48,49c-29,49 -29,159 1,215c42,79 115,127 187,122l40,-2l1,-125z" id="svg_37"/>
     <path stroke="null" d="m271777.17096,-43345.15144c-37,-13 -60,-47 -60,-86c0,-47 53,-368 75,-450c25,-97 81,-187 115,-187c65,0 98,46 170,233c29,75 54,136 56,134c2,-2 13,-52 24,-111c35,-178 82,-256 154,-256c85,0 131,93 242,487c41,146 44,165 32,190c-30,63 -148,61 -164,-4c-59,-236 -102,-385 -107,-368c-3,11 -17,83 -31,160c-14,77 -30,155 -36,174c-15,52 -47,81 -90,81c-68,0 -83,-22 -147,-215c-31,-96 -61,-171 -65,-167c-4,4 -17,79 -28,167c-12,90 -28,170 -36,183c-22,33 -67,49 -104,35z" id="svg_36"/>
     <path stroke="null" d="m267996.17096,-43362.15144c-64,-23 -110,-58 -153,-116c-60,-81 -79,-150 -74,-263c5,-106 27,-161 89,-225c61,-61 121,-86 209,-86c94,-1 162,28 221,91c161,175 125,508 -65,594c-49,22 -172,25 -227,5zm163,-167c51,-27 77,-182 43,-262c-18,-44 -66,-84 -109,-92c-45,-9 -101,16 -126,57c-47,77 -12,239 63,287c35,23 97,27 129,10z" id="svg_35"/>
     <path stroke="null" d="m269471.17096,-43369.15144c-67,-26 -135,-94 -176,-177c-31,-62 -33,-74 -33,-167c0,-122 19,-179 82,-246c61,-65 128,-94 223,-93c89,0 144,22 206,84c176,174 131,538 -75,608c-53,18 -168,14 -227,-9zm185,-165c35,-25 51,-75 51,-160c0,-60 -5,-85 -22,-115c-22,-39 -84,-79 -124,-79c-34,0 -87,35 -106,71c-33,62 -17,188 32,247c42,50 123,68 169,36z" id="svg_34"/>
    </g>
   </g>
  </g>
 </g>
</svg>